<svg width="300" height="150" viewBox="0 0 300 150" fill="none" xmlns="http://www.w3.org/2000/svg">
<rect width="300" height="150" fill="white"/>
<g clip-path="url(#clip0_2_5332)">
<path d="M110.082 -16.0121C110.429 -15.87 110.157 -15.3641 110.073 -15.147C109.905 -14.715 109.711 -14.2931 109.491 -13.8835C109.306 -13.5388 109.098 -13.2098 108.885 -12.8819C108.942 -12.751 108.985 -12.6111 109.022 -12.4745C109.151 -12.0067 109.307 -11.5535 109.458 -11.0924C109.559 -10.7869 109.644 -10.4758 109.676 -10.1568C109.813 -10.1042 109.949 -10.0516 110.083 -10.0057C110.566 -9.84232 111.049 -9.68117 111.532 -9.51889C112.139 -9.31521 113.339 -9.15293 113.099 -8.25091C112.9 -7.49773 112.048 -7.11946 111.358 -6.96167C110.875 -6.85087 110.378 -6.8061 109.89 -6.72552C109.384 -6.64271 108.881 -6.54311 108.38 -6.42896C107.93 -6.32599 107.461 -6.16596 106.99 -6.07083C106.895 -5.52357 106.822 -4.97295 106.787 -4.41786C106.721 -3.38042 106.785 -2.34858 106.925 -1.31897C107.18 0.553343 107.642 2.45812 107.373 4.35505C107.098 6.2934 105.953 7.89152 104.631 9.28037C103.849 10.1018 103.009 10.8662 102.229 11.6899C101.535 12.4229 100.744 13.2533 100.478 14.2549C100.189 15.3427 100.762 16.4137 101.486 17.196C102.145 17.9078 102.997 18.436 103.923 18.7225C104.897 19.0236 105.943 19.0314 106.926 18.7662C107.453 18.624 107.964 18.4025 108.426 18.1126C108.854 17.844 109.195 17.4915 109.587 17.1826C109.859 16.9688 110.207 16.7674 110.564 16.8704C110.914 16.9711 111.11 17.3225 111.121 17.6705C111.135 18.0813 110.896 18.4472 110.64 18.7483C110.327 19.1176 109.964 19.4466 109.569 19.7275C107.952 20.8791 105.874 21.2216 103.946 20.8041C102.122 20.4091 100.332 19.3895 99.1157 17.9693C98.4873 17.2352 98.0733 16.369 97.9308 15.4166C97.8758 15.4916 97.8051 15.5576 97.7131 15.6136C97.2767 15.8777 96.6921 15.7512 96.2736 15.5184C95.7631 15.2342 95.4018 14.7686 95.1202 14.2684C94.7656 13.6394 94.4896 12.9713 94.1227 12.3468C93.7401 11.6955 93.3216 11.0632 92.9805 10.3872C92.709 9.85001 92.3409 9.14608 92.4565 8.5216C92.5541 7.99672 93.0108 7.68896 93.5336 7.80871C93.7031 7.84788 93.8512 7.92062 93.9813 8.01686C93.8153 7.80647 93.6649 7.58376 93.4394 7.42484C93.1241 7.20437 92.8391 7.01412 92.7033 6.63473C92.6192 6.39972 92.5777 6.05502 92.8369 5.91289C93.2946 5.66108 93.8534 6.2878 94.2248 6.66719C94.8206 5.4865 95.1583 4.19837 95.7855 3.02887C95.8944 2.82519 96.0144 2.62486 96.1446 2.43237C95.4377 2.66179 94.7398 2.90912 94.0475 3.20346C93.0815 3.61418 91.9325 3.97678 91.3019 4.86873C91.0899 5.16866 90.852 5.51671 90.438 5.49209C90.0397 5.46859 89.7502 5.1474 89.6088 4.80047C89.3766 4.23083 89.0804 2.83862 90.0105 2.69872C90.1979 2.67075 90.3841 2.72894 90.5715 2.73342C90.8991 2.74125 91.2189 2.6327 91.5196 2.51519C92.0066 2.32606 92.4823 2.1067 92.9457 1.86609C93.9095 1.36471 94.8172 0.751429 95.6161 0.0150375C96.0245 -0.362112 96.5889 -0.831029 96.7594 -1.38164C96.9176 -1.89533 96.7617 -2.51421 96.7695 -3.0458C96.7729 -3.25172 96.7864 -3.46884 96.8144 -3.68819C96.7774 -3.61209 96.7392 -3.53598 96.7033 -3.45876C96.5171 -3.06147 96.3185 -2.65858 95.9942 -2.35417C95.6509 -2.03186 95.1998 -1.86176 94.751 -1.74984C94.2102 -1.61443 93.6537 -1.53609 93.1073 -1.42082C92.544 -1.30219 91.983 -1.16789 91.4265 -1.01904C90.861 -0.867961 90.3 -0.701207 89.7435 -0.519907C89.3463 -0.390087 88.9233 -0.228934 88.4992 -0.298321C87.7519 -0.421426 87.2705 -1.28987 87.0989 -1.96136C87.0181 -2.27695 87.1337 -2.58024 87.477 -2.64739C87.6891 -2.6888 87.909 -2.62501 88.1143 -2.57912C88.36 -2.52428 88.608 -2.4784 88.8582 -2.44818C90.8509 -2.19974 92.9199 -2.76378 94.4997 -4.00155C95.4534 -4.74913 96.2444 -5.6948 97.2565 -6.37076C97.2643 -6.37523 97.2722 -6.38083 97.28 -6.38531C97.9039 -6.93033 98.5625 -7.43506 99.2548 -7.89167C99.9594 -8.35611 100.701 -8.76347 101.426 -9.19434C101.819 -9.42824 102.208 -9.66997 102.582 -9.93297C102.722 -10.0315 102.855 -10.1389 102.987 -10.2486C103.213 -11.0599 103.799 -11.8142 104.358 -12.3604C104.857 -12.8483 105.44 -13.2837 106.123 -13.4717C106.229 -13.5008 106.34 -13.5254 106.455 -13.5433C106.503 -13.5825 106.55 -13.6205 106.598 -13.6597C107.003 -13.991 107.415 -14.3133 107.834 -14.6277C108.252 -14.9422 108.676 -15.2478 109.106 -15.5454C109.33 -15.7021 109.774 -16.1397 110.082 -16.0121Z" fill="#9C9C9C"/>
<path d="M98.1609 90.8576C98.0476 90.5017 98.6108 90.3842 98.8307 90.3092C99.2706 90.1593 99.7194 90.0373 100.175 89.9421C100.559 89.8616 100.945 89.809 101.334 89.762C101.398 89.6344 101.478 89.5124 101.558 89.396C101.834 88.9965 102.082 88.5869 102.339 88.1739C102.51 87.9008 102.694 87.6367 102.918 87.4062C102.871 87.2685 102.824 87.1309 102.772 86.9977C102.587 86.5243 102.401 86.0509 102.215 85.5775C101.981 84.9832 101.334 83.9615 102.181 83.5642C102.888 83.2329 103.725 83.6403 104.29 84.0656C104.685 84.3632 105.04 84.7135 105.415 85.0347C105.804 85.3682 106.203 85.6894 106.613 85.9983C106.981 86.2758 107.405 86.531 107.781 86.8309C108.262 86.5512 108.733 86.2535 109.181 85.9233C110.021 85.3067 110.772 84.5938 111.472 83.8261C112.747 82.4271 113.912 80.8514 115.543 79.8363C117.209 78.8 119.172 78.6478 121.087 78.7642C122.22 78.8336 123.348 78.9847 124.481 79.0507C125.491 79.11 126.638 79.1805 127.578 78.7396C128.599 78.2606 129.053 77.1347 129.189 76.0783C129.311 75.1181 129.171 74.1276 128.795 73.2357C128.4 72.2978 127.735 71.4932 126.899 70.9135C126.45 70.6023 125.953 70.355 125.433 70.1871C124.952 70.0327 124.462 69.9991 123.972 69.8973C123.633 69.8268 123.255 69.6914 123.104 69.3511C122.957 69.0188 123.1 68.6427 123.36 68.4111C123.668 68.1369 124.102 68.0843 124.498 68.0854C124.983 68.0876 125.468 68.1525 125.939 68.2734C127.863 68.7692 129.462 70.1368 130.38 71.8781C131.249 73.5255 131.616 75.5478 131.306 77.391C131.146 78.3434 130.746 79.2163 130.108 79.9371C130.201 79.9315 130.298 79.9427 130.4 79.9774C130.883 80.1419 131.162 80.669 131.251 81.139C131.361 81.712 131.236 82.2861 131.034 82.8233C130.778 83.4993 130.442 84.1394 130.199 84.821C129.944 85.5327 129.728 86.2579 129.429 86.9529C129.191 87.5058 128.887 88.2399 128.333 88.5522C127.867 88.8152 127.338 88.6641 127.093 88.1873C127.015 88.0329 126.975 87.8729 126.965 87.7117C126.911 87.9736 126.835 88.2321 126.859 88.5063C126.891 88.8879 126.929 89.2292 126.725 89.5762C126.598 89.7922 126.36 90.044 126.084 89.9377C125.598 89.7497 125.719 88.9193 125.771 88.3921C124.482 88.6954 123.275 89.2662 121.975 89.5381C121.748 89.5851 121.518 89.6232 121.286 89.6467C121.916 90.0395 122.555 90.4144 123.226 90.7535C124.162 91.228 125.179 91.8727 126.27 91.7809C126.635 91.7496 127.056 91.7081 127.303 92.0394C127.541 92.3584 127.48 92.7859 127.304 93.1171C127.016 93.6599 126.136 94.7824 125.431 94.1602C125.29 94.0348 125.214 93.8546 125.097 93.7092C124.893 93.454 124.603 93.2794 124.32 93.125C123.862 92.8754 123.387 92.6516 122.905 92.4524C121.9 92.0383 120.846 91.7384 119.766 91.6018C119.214 91.5324 118.491 91.4015 117.959 91.6264C117.462 91.8357 117.087 92.3528 116.674 92.6885C116.514 92.8183 116.338 92.947 116.151 93.0668C116.233 93.0466 116.316 93.0265 116.399 93.0052C116.824 92.8922 117.261 92.7847 117.703 92.8373C118.171 92.8922 118.592 93.1272 118.968 93.3992C119.42 93.7259 119.837 94.1009 120.277 94.4444C120.73 94.7981 121.194 95.1405 121.666 95.4707C122.145 95.8053 122.634 96.1276 123.131 96.4354C123.486 96.6558 123.882 96.8741 124.102 97.2434C124.488 97.8936 124.13 98.8203 123.724 99.3821C123.533 99.6462 123.227 99.7536 122.954 99.5343C122.786 99.3989 122.694 99.1896 122.597 99.0038C122.482 98.78 122.357 98.5617 122.22 98.3502C121.13 96.6682 119.367 95.4494 117.4 95.0387C116.213 94.7902 114.978 94.7947 113.809 94.4545C113.8 94.4523 113.791 94.4489 113.783 94.4467C112.963 94.3202 112.151 94.1423 111.357 93.9061C110.547 93.6655 109.758 93.3622 108.96 93.0847C108.528 92.9347 108.093 92.7926 107.65 92.6762C107.484 92.6326 107.315 92.6001 107.147 92.5699C106.379 92.9179 105.423 92.956 104.645 92.8799C103.949 92.8116 103.24 92.646 102.657 92.2464C102.566 92.1838 102.475 92.1144 102.389 92.0383C102.328 92.0271 102.267 92.0148 102.207 92.0036C101.693 91.9074 101.18 91.7999 100.67 91.6824C100.159 91.5649 99.6521 91.4373 99.1471 91.2997C98.8823 91.2325 98.2619 91.1754 98.1609 90.8576Z" fill="#9C9C9C"/>
<path d="M201.709 -9.32753C201.905 -9.64648 202.363 -9.29955 202.564 -9.18316C202.966 -8.95038 203.353 -8.69186 203.724 -8.41208C204.038 -8.17594 204.33 -7.91966 204.621 -7.6589C204.76 -7.69471 204.905 -7.71486 205.045 -7.73052C205.529 -7.78424 206.002 -7.86706 206.481 -7.94428C206.8 -7.99576 207.121 -8.03045 207.442 -8.01254C207.515 -8.139 207.589 -8.26435 207.655 -8.39081C207.892 -8.8407 208.127 -9.29172 208.364 -9.74161C208.661 -10.3079 209.009 -11.4651 209.865 -11.0879C210.58 -10.7723 210.821 -9.87591 210.869 -9.17085C210.903 -8.67843 210.871 -8.18154 210.874 -7.688C210.877 -7.17655 210.896 -6.66398 210.931 -6.15366C210.963 -5.69481 211.048 -5.20687 211.068 -4.72788C211.595 -4.54882 212.129 -4.39101 212.673 -4.26903C213.689 -4.04184 214.721 -3.94336 215.763 -3.91986C217.657 -3.87845 219.614 -4.03513 221.451 -3.47332C223.328 -2.89921 224.731 -1.52155 225.9 -0.00287819C226.591 0.895788 227.217 1.84369 227.909 2.74124C228.527 3.5403 229.226 4.45016 230.176 4.86872C231.208 5.32309 232.358 4.92579 233.246 4.33489C234.054 3.7977 234.71 3.04117 235.139 2.17272C235.589 1.26063 235.761 0.231015 235.651 -0.778446C235.593 -1.32011 235.454 -1.85729 235.238 -2.35867C235.04 -2.82199 234.744 -3.21256 234.499 -3.64903C234.33 -3.95008 234.185 -4.32387 234.343 -4.65961C234.498 -4.98864 234.876 -5.12741 235.223 -5.08376C235.631 -5.03228 235.957 -4.74019 236.215 -4.44138C236.531 -4.07542 236.8 -3.66693 237.017 -3.23383C237.904 -1.45888 237.918 0.64062 237.203 2.47488C236.527 4.21067 235.237 5.81439 233.641 6.78916C232.815 7.29389 231.893 7.56584 230.928 7.55689C230.993 7.62292 231.048 7.7035 231.088 7.80198C231.281 8.27314 231.065 8.82935 230.768 9.20538C230.407 9.66422 229.89 9.94625 229.35 10.1466C228.671 10.3973 227.967 10.5651 227.291 10.8281C226.585 11.1034 225.894 11.4168 225.173 11.6473C224.598 11.8309 223.843 12.0838 223.243 11.8723C222.738 11.6943 222.505 11.1963 222.706 10.6994C222.771 10.5383 222.866 10.404 222.982 10.2909C222.748 10.4219 222.502 10.5338 222.311 10.7319C222.042 11.0072 221.81 11.259 221.413 11.3329C221.166 11.3787 220.819 11.3653 220.718 11.0878C220.541 10.5976 221.249 10.1443 221.683 9.83881C220.607 9.06661 219.384 8.53278 218.325 7.73259C218.141 7.59382 217.962 7.44386 217.79 7.28494C217.907 8.01797 218.041 8.74429 218.225 9.47173C218.481 10.4879 218.66 11.6764 219.445 12.4363C219.709 12.6915 220.016 12.9813 219.927 13.3842C219.842 13.7737 219.479 14.0076 219.113 14.0926C218.513 14.2314 217.088 14.3053 217.096 13.3674C217.097 13.1783 217.184 13.0037 217.218 12.8202C217.277 12.4979 217.219 12.1666 217.15 11.8521C217.039 11.3429 216.897 10.8393 216.731 10.3458C216.385 9.31841 215.92 8.32798 215.315 7.42595C215.005 6.96487 214.629 6.33479 214.111 6.08187C213.627 5.84573 212.99 5.90168 212.465 5.81103C212.262 5.77522 212.049 5.72822 211.835 5.66554C211.905 5.71479 211.975 5.76403 212.045 5.81103C212.409 6.05724 212.777 6.31577 213.028 6.68284C213.293 7.07118 213.392 7.54122 213.432 8.0023C213.482 8.5574 213.471 9.11696 213.501 9.67317C213.53 10.2473 213.576 10.8203 213.635 11.3911C213.696 11.9719 213.773 12.5505 213.866 13.1268C213.933 13.5387 214.027 13.9796 213.891 14.387C213.653 15.1043 212.716 15.4423 212.025 15.5061C211.7 15.5363 211.418 15.3752 211.406 15.026C211.398 14.8111 211.496 14.6041 211.573 14.4082C211.666 14.1743 211.749 13.9371 211.82 13.6954C212.377 11.7704 212.143 9.64408 211.163 7.89375C210.572 6.83728 209.759 5.91064 209.248 4.80717C209.245 4.79933 209.24 4.79038 209.237 4.78254C208.795 4.08308 208.398 3.35453 208.054 2.60135C207.704 1.83362 207.417 1.04015 207.104 0.257875C206.935 -0.166278 206.756 -0.587069 206.553 -0.996673C206.477 -1.14999 206.391 -1.29884 206.304 -1.44545C205.537 -1.79574 204.88 -2.49072 204.428 -3.12639C204.023 -3.69491 203.683 -4.3373 203.603 -5.039C203.591 -5.14867 203.584 -5.26171 203.584 -5.37698C203.553 -5.4307 203.522 -5.48329 203.491 -5.53701C203.227 -5.98802 202.972 -6.44352 202.726 -6.9046C202.48 -7.36569 202.243 -7.83125 202.017 -8.3024C201.899 -8.53854 201.534 -9.04327 201.709 -9.32753Z" fill="#9C9C9C"/>
<path d="M37.0728 124.183C37.1019 123.811 37.6674 123.912 37.9008 123.925C38.3653 123.95 38.8276 124.005 39.2854 124.087C39.6714 124.156 40.0495 124.252 40.4276 124.352C40.5353 124.258 40.6554 124.174 40.7732 124.096C41.1793 123.828 41.5631 123.541 41.9558 123.255C42.2161 123.065 42.4865 122.89 42.7805 122.76C42.7883 122.614 42.7962 122.469 42.7984 122.327C42.804 121.819 42.8096 121.31 42.8152 120.802C42.822 120.163 42.6054 118.975 43.5401 118.923C44.3199 118.881 44.9437 119.57 45.3072 120.177C45.5619 120.601 45.7583 121.058 45.9861 121.496C46.2217 121.951 46.4719 122.398 46.7356 122.837C46.9734 123.232 47.2696 123.627 47.5064 124.046C48.0573 123.966 48.6048 123.865 49.1456 123.728C50.1555 123.469 51.1204 123.09 52.0573 122.639C53.7639 121.819 55.4368 120.792 57.3296 120.461C59.2628 120.123 61.14 120.715 62.8724 121.539C63.8979 122.027 64.8864 122.587 65.9119 123.073C66.8252 123.505 67.862 124 68.8998 123.942C70.0263 123.879 70.8712 123.005 71.3929 122.076C71.8676 121.231 72.1088 120.261 72.0953 119.293C72.0819 118.275 71.7666 117.282 71.2089 116.431C70.9105 115.974 70.5413 115.559 70.1217 115.21C69.7335 114.888 69.2914 114.673 68.8751 114.395C68.5879 114.204 68.2883 113.936 68.276 113.565C68.2636 113.201 68.5374 112.907 68.8662 112.789C69.2533 112.651 69.6763 112.764 70.0432 112.912C70.492 113.095 70.9183 113.338 71.3077 113.625C72.9054 114.805 73.8737 116.669 74.0723 118.627C74.2597 120.479 73.8412 122.492 72.8617 124.085C72.3556 124.908 71.6577 125.568 70.7938 125.997C70.8824 126.026 70.9677 126.073 71.0485 126.143C71.4356 126.475 71.4951 127.068 71.4019 127.538C71.2886 128.11 70.9565 128.597 70.5671 129.019C70.0768 129.551 69.5248 130.018 69.0423 130.559C68.5385 131.124 68.0662 131.715 67.5276 132.248C67.099 132.672 66.5414 133.238 65.9108 133.321C65.3801 133.39 64.9458 133.052 64.8976 132.519C64.8819 132.345 64.9066 132.183 64.9582 132.03C64.809 132.252 64.6429 132.463 64.561 132.727C64.4477 133.094 64.3545 133.423 64.0348 133.669C63.8362 133.821 63.5209 133.967 63.3055 133.765C62.924 133.409 63.3492 132.684 63.5961 132.215C62.2867 132.015 60.9526 132.092 59.6455 131.859C59.4177 131.819 59.1899 131.767 58.9655 131.703C59.4031 132.303 59.8542 132.889 60.349 133.454C61.039 134.243 61.7391 135.221 62.7848 135.544C63.136 135.652 63.5411 135.771 63.6466 136.17C63.7475 136.555 63.531 136.929 63.2426 137.171C62.7714 137.567 61.5349 138.278 61.1142 137.438C61.03 137.269 61.0278 137.075 60.9739 136.896C60.8797 136.582 60.6777 136.312 60.4724 136.063C60.1414 135.66 59.7857 135.275 59.4121 134.911C58.6356 134.153 57.7717 133.48 56.8213 132.951C56.3355 132.68 55.7139 132.289 55.1361 132.298C54.5975 132.307 54.0545 132.645 53.5462 132.803C53.3487 132.863 53.1378 132.917 52.9201 132.958C53.0043 132.971 53.0884 132.983 53.1726 132.993C53.609 133.048 54.0545 133.111 54.4449 133.325C54.8578 133.552 55.1596 133.926 55.4054 134.318C55.7016 134.789 55.9484 135.293 56.2267 135.776C56.5139 136.274 56.8157 136.765 57.1288 137.247C57.4474 137.737 57.7795 138.217 58.124 138.69C58.3697 139.026 58.6547 139.377 58.7198 139.801C58.8342 140.547 58.1543 141.274 57.5664 141.643C57.2903 141.816 56.9661 141.802 56.7955 141.496C56.6912 141.308 56.6833 141.08 56.6643 140.871C56.6407 140.62 56.607 140.372 56.5599 140.124C56.1807 138.157 55.0048 136.368 53.3352 135.253C52.3277 134.579 51.181 134.121 50.2239 133.369C50.2172 133.364 50.2093 133.358 50.2026 133.352C49.4901 132.929 48.8046 132.46 48.156 131.944C47.4952 131.42 46.8781 130.842 46.243 130.287C45.8985 129.986 45.5485 129.692 45.1816 129.419C45.0436 129.317 44.8999 129.223 44.7552 129.132C43.9126 129.168 43.0105 128.846 42.3182 128.484C41.6988 128.161 41.103 127.743 40.7126 127.153C40.652 127.062 40.5948 126.963 40.542 126.861C40.4904 126.828 40.4388 126.794 40.3861 126.762C39.9451 126.48 39.5109 126.189 39.0823 125.89C38.6537 125.59 38.2307 125.282 37.8144 124.966C37.6012 124.8 37.047 124.516 37.0728 124.183Z" fill="#9C9C9C"/>
<path d="M174.748 -9.68453C175.12 -9.63641 174.989 -9.07796 174.964 -8.8463C174.913 -8.38521 174.835 -7.92749 174.729 -7.47648C174.64 -7.09485 174.525 -6.72442 174.404 -6.35287C174.493 -6.24095 174.57 -6.11673 174.642 -5.99474C174.888 -5.57618 175.156 -5.17888 175.422 -4.77264C175.598 -4.50293 175.76 -4.22427 175.875 -3.92434C176.021 -3.90867 176.166 -3.893 176.308 -3.88405C176.816 -3.85159 177.326 -3.82025 177.834 -3.7878C178.472 -3.74751 179.675 -3.90084 179.677 -2.96748C179.68 -2.18856 178.956 -1.60325 178.33 -1.2731C177.892 -1.04144 177.424 -0.870214 176.973 -0.666531C176.505 -0.456133 176.045 -0.230063 175.592 0.00943184C175.185 0.225426 174.773 0.500731 174.342 0.713367C174.393 1.26622 174.465 1.81684 174.575 2.36186C174.78 3.38139 175.11 4.36175 175.511 5.31862C176.244 7.06223 177.183 8.78123 177.415 10.6849C177.653 12.6288 176.962 14.4676 176.047 16.1496C175.505 17.1457 174.891 18.1003 174.351 19.0974C173.87 19.9849 173.321 20.9921 173.325 22.0285C173.328 23.1532 174.159 24.0407 175.061 24.6092C175.883 25.1262 176.842 25.4172 177.812 25.4541C178.83 25.4933 179.842 25.2314 180.723 24.7211C181.196 24.4469 181.631 24.1022 182.002 23.7016C182.346 23.3322 182.583 22.9025 182.883 22.503C183.091 22.2265 183.373 21.9423 183.746 21.949C184.11 21.9557 184.391 22.2444 184.492 22.5779C184.611 22.9708 184.475 23.3871 184.307 23.743C184.1 24.1805 183.836 24.5924 183.527 24.9651C182.263 26.4949 180.345 27.3623 178.375 27.4563C176.51 27.5458 174.517 27.0232 172.973 25.9645C172.176 25.4172 171.552 24.6875 171.167 23.8056C171.133 23.8918 171.082 23.9746 171.008 24.0518C170.654 24.4189 170.057 24.448 169.592 24.3316C169.025 24.1895 168.555 23.8325 168.153 23.4229C167.647 22.907 167.207 22.3329 166.691 21.8236C166.153 21.2932 165.585 20.7907 165.079 20.2266C164.677 19.7779 164.139 19.1926 164.088 18.5602C164.047 18.0275 164.407 17.6135 164.944 17.5933C165.118 17.5866 165.28 17.6191 165.431 17.6784C165.216 17.5183 165.014 17.3415 164.754 17.2464C164.392 17.1143 164.067 17.0046 163.838 16.6734C163.695 16.4675 163.566 16.1463 163.78 15.9415C164.155 15.58 164.859 16.0411 165.316 16.3119C165.585 15.0182 165.577 13.6853 165.879 12.3949C165.932 12.17 165.996 11.9461 166.071 11.7257C165.447 12.1297 164.838 12.5482 164.245 13.0116C163.418 13.6584 162.403 14.3042 162.026 15.3293C161.899 15.6729 161.759 16.0713 161.354 16.1541C160.963 16.2347 160.6 15.9997 160.374 15.6997C160.003 15.2095 159.356 13.9404 160.217 13.5655C160.39 13.4906 160.586 13.4984 160.768 13.4547C161.087 13.3775 161.367 13.1906 161.628 12.9993C162.048 12.6904 162.452 12.3557 162.836 12.0032C163.637 11.2702 164.354 10.4443 164.935 9.52545C165.233 9.05541 165.656 8.45667 165.677 7.88144C165.697 7.34425 165.385 6.78581 165.255 6.271C165.205 6.0718 165.162 5.85804 165.132 5.63869C165.115 5.7215 165.098 5.80544 165.083 5.88825C165.006 6.32024 164.92 6.76007 164.685 7.13833C164.437 7.53787 164.046 7.81877 163.64 8.04371C163.152 8.31454 162.635 8.53278 162.138 8.7857C161.624 9.04646 161.118 9.32065 160.619 9.60715C160.112 9.89924 159.614 10.2048 159.123 10.5237C158.773 10.7509 158.407 11.0173 157.979 11.0598C157.225 11.1336 156.534 10.4185 156.195 9.81419C156.035 9.52993 156.068 9.20762 156.382 9.0543C156.576 8.96029 156.805 8.96365 157.015 8.95581C157.267 8.94574 157.518 8.92559 157.768 8.8909C159.757 8.61671 161.61 7.53786 162.814 5.93414C163.541 4.96497 164.059 3.84807 164.862 2.93374C164.868 2.92702 164.875 2.92031 164.881 2.91359C165.343 2.22644 165.847 1.56839 166.398 0.948389C166.958 0.317196 167.569 -0.266994 168.158 -0.871328C168.477 -1.19812 168.789 -1.53274 169.082 -1.88303C169.192 -2.01397 169.293 -2.15274 169.392 -2.29263C169.401 -3.13422 169.77 -4.01499 170.168 -4.68647C170.524 -5.28633 170.974 -5.85708 171.584 -6.21633C171.68 -6.27228 171.781 -6.32488 171.886 -6.37077C171.922 -6.42113 171.959 -6.47038 171.995 -6.52074C172.3 -6.94489 172.614 -7.36232 172.936 -7.77416C173.258 -8.18601 173.589 -8.59002 173.928 -8.98843C174.103 -9.191 174.416 -9.72818 174.748 -9.68453Z" fill="#9C9C9C"/>
<path d="M54.2205 20.4628C54.566 20.606 54.7332 20.0565 54.8264 19.845C55.0137 19.4209 55.1753 18.9855 55.3099 18.5412C55.4233 18.1663 55.5097 17.788 55.5916 17.4053C55.7251 17.3527 55.8541 17.2844 55.9775 17.2139C56.4005 16.9744 56.8314 16.764 57.2656 16.5447C57.5528 16.3992 57.8334 16.2392 58.0836 16.0366C58.2171 16.0959 58.3506 16.1541 58.4785 16.2179C58.9352 16.4428 59.3918 16.67 59.8485 16.895C60.4218 17.1792 61.3856 17.9112 61.8569 17.1031C62.2496 16.4294 61.9152 15.5621 61.5394 14.9633C61.2768 14.5448 60.957 14.162 60.6687 13.7614C60.3691 13.3451 60.083 12.9198 59.8115 12.4867C59.5669 12.0972 59.3481 11.6529 59.0821 11.2534C59.403 10.799 59.7419 10.3592 60.1099 9.94178C60.7988 9.16174 61.5764 8.47683 62.4044 7.84787C63.9124 6.70299 65.5887 5.68234 66.7433 4.15025C67.9236 2.58569 68.2468 0.648464 68.2973 -1.26526C68.3275 -2.39783 68.2748 -3.53039 68.3062 -4.66296C68.3343 -5.6713 68.3646 -6.8173 68.8863 -7.71261C69.4529 -8.68514 70.6176 -9.03878 71.6846 -9.08131C72.6552 -9.11936 73.6313 -8.8933 74.4897 -8.44229C75.3918 -7.96777 76.1368 -7.23697 76.6439 -6.35509C76.9154 -5.8817 77.1197 -5.36578 77.2408 -4.83419C77.353 -4.34289 77.3441 -3.8527 77.4024 -3.35693C77.4428 -3.01447 77.546 -2.62613 77.8714 -2.44707C78.1901 -2.27136 78.5783 -2.38104 78.833 -2.61941C79.1325 -2.90032 79.2234 -3.32783 79.2571 -3.72065C79.2975 -4.20299 79.275 -4.69094 79.1943 -5.16769C78.8666 -7.12394 77.6403 -8.83062 75.9808 -9.89492C74.4111 -10.9021 72.4229 -11.4438 70.5559 -11.2972C69.5909 -11.2211 68.6844 -10.8999 67.909 -10.328C67.9225 -10.4198 67.9203 -10.5172 67.8945 -10.6212C67.7733 -11.1159 67.2706 -11.4382 66.8083 -11.5692C66.2462 -11.7281 65.6605 -11.6542 65.1062 -11.4998C64.4095 -11.305 63.7408 -11.0264 63.0384 -10.844C62.3057 -10.6526 61.5618 -10.5015 60.8415 -10.2642C60.2681 -10.0762 59.5085 -9.83785 59.1484 -9.31521C58.8454 -8.87539 58.9498 -8.33597 59.4053 -8.05059C59.5523 -7.95882 59.7094 -7.9051 59.8698 -7.8816C59.6028 -7.85026 59.3391 -7.79766 59.0676 -7.84466C58.6883 -7.91069 58.3517 -7.97784 57.9871 -7.8055C57.7604 -7.69806 57.4878 -7.4843 57.5697 -7.20004C57.7144 -6.69978 58.5548 -6.74791 59.0866 -6.75462C58.6715 -5.50007 57.996 -4.3496 57.6112 -3.08162C57.5439 -2.86115 57.4866 -2.63509 57.4418 -2.40678C57.1052 -3.06819 56.7854 -3.73407 56.5049 -4.4313C56.1133 -5.40271 55.5579 -6.46924 55.7442 -7.54473C55.807 -7.9051 55.8855 -8.3203 55.5759 -8.59449C55.2774 -8.8586 54.8454 -8.83622 54.4998 -8.68961C53.9321 -8.45011 52.7349 -7.67455 53.2948 -6.92025C53.407 -6.76917 53.5809 -6.67852 53.7156 -6.54982C53.9534 -6.32375 54.1015 -6.02159 54.2317 -5.72614C54.4415 -5.24938 54.6233 -4.75809 54.7792 -4.26119C55.1046 -3.22711 55.3122 -2.15385 55.3548 -1.06941C55.3761 -0.514318 55.4435 0.215362 55.1731 0.724569C54.9206 1.19908 54.3719 1.5281 54.0005 1.90861C53.8569 2.05634 53.7122 2.21973 53.5775 2.39432C53.6045 2.31374 53.6314 2.23316 53.6606 2.1537C53.8098 1.74186 53.9557 1.31659 53.9422 0.872289C53.9276 0.402251 53.7301 -0.0353279 53.4912 -0.432622C53.205 -0.910493 52.8662 -1.35815 52.5621 -1.82371C52.248 -2.30494 51.9461 -2.79512 51.6589 -3.29314C51.3661 -3.79899 51.0878 -4.31267 50.823 -4.83307C50.6345 -5.20462 50.4505 -5.61758 50.1004 -5.86715C49.4856 -6.30697 48.5285 -6.03278 47.9316 -5.67802C47.6511 -5.51126 47.5175 -5.21582 47.7128 -4.92596C47.8328 -4.7469 48.0337 -4.63722 48.2121 -4.52419C48.4253 -4.38989 48.6328 -4.24664 48.8314 -4.0922C50.4168 -2.86227 51.4805 -1.0045 51.7195 0.985323C51.8642 2.18728 51.752 3.41385 51.9899 4.60461C51.9921 4.61357 51.9944 4.62252 51.9955 4.63147C52.0494 5.4574 52.1582 6.27884 52.3243 7.0891C52.4937 7.91502 52.7282 8.72528 52.9358 9.54225C53.048 9.98542 53.1523 10.4297 53.2297 10.8796C53.2589 11.0486 53.2768 11.2187 53.2926 11.3888C52.8774 12.1219 52.7562 13.0686 52.7652 13.8487C52.7731 14.5459 52.8763 15.2644 53.2252 15.8799C53.2791 15.975 53.3408 16.0713 53.4092 16.1642C53.416 16.2257 53.4216 16.2862 53.4283 16.3477C53.4799 16.867 53.5428 17.3863 53.6157 17.9033C53.6886 18.4204 53.7717 18.9363 53.8659 19.45C53.9097 19.713 53.9119 20.3352 54.2205 20.4628Z" fill="#9C9C9C"/>
<path d="M118.663 8.68162C118.875 8.37386 119.314 8.74317 119.509 8.87076C119.899 9.1248 120.271 9.40234 120.627 9.70115C120.927 9.95408 121.206 10.2249 121.483 10.5002C121.623 10.4722 121.769 10.4599 121.911 10.451C122.396 10.4219 122.873 10.3648 123.357 10.3122C123.678 10.2775 124 10.2596 124.321 10.2943C124.4 10.1723 124.48 10.0503 124.553 9.92834C124.813 9.49188 125.072 9.05317 125.332 8.61671C125.658 8.06721 126.066 6.92905 126.901 7.35097C127.598 7.70349 127.792 8.61112 127.803 9.31841C127.811 9.81195 127.753 10.3066 127.729 10.799C127.706 11.3105 127.698 11.8219 127.707 12.3345C127.715 12.7945 127.773 13.2857 127.769 13.7647C128.286 13.9707 128.811 14.1564 129.347 14.3064C130.351 14.5862 131.377 14.7384 132.415 14.8156C134.304 14.9566 136.268 14.9018 138.073 15.5587C139.918 16.2302 141.246 17.6795 142.333 19.2563C142.976 20.1897 143.552 21.1689 144.197 22.1012C144.772 22.9316 145.422 23.8761 146.349 24.3439C147.356 24.852 148.526 24.5152 149.443 23.9713C150.277 23.4766 150.973 22.7559 151.446 21.9109C151.943 21.0235 152.17 20.005 152.114 18.99C152.084 18.4461 151.973 17.9022 151.784 17.3907C151.61 16.9185 151.334 16.5122 151.113 16.0635C150.961 15.7535 150.835 15.3729 151.01 15.0462C151.182 14.7261 151.566 14.6075 151.911 14.669C152.316 14.7417 152.626 15.0506 152.868 15.3629C153.165 15.7456 153.412 16.1675 153.606 16.6107C154.4 18.4293 154.303 20.5266 153.493 22.3205C152.727 24.0183 151.354 25.5526 149.708 26.4434C148.858 26.9045 147.922 27.1272 146.959 27.069C147.021 27.1384 147.072 27.2212 147.108 27.3231C147.276 27.8043 147.03 28.3471 146.715 28.7086C146.33 29.1473 145.799 29.4036 145.25 29.5748C144.558 29.7908 143.846 29.9206 143.157 30.1478C142.438 30.3862 141.731 30.6626 140.998 30.8551C140.415 31.0084 139.648 31.221 139.059 30.9782C138.565 30.7734 138.358 30.2642 138.585 29.7785C138.658 29.6207 138.761 29.492 138.882 29.3845C138.642 29.5032 138.392 29.6028 138.189 29.7897C137.907 30.0504 137.661 30.2899 137.261 30.3425C137.013 30.375 136.666 30.3436 136.581 30.0616C136.429 29.5625 137.16 29.1473 137.61 28.8641C136.576 28.0371 135.383 27.4395 134.366 26.5856C134.19 26.4367 134.018 26.2789 133.855 26.1111C133.934 26.8486 134.031 27.5816 134.175 28.318C134.377 29.3465 134.494 30.5417 135.238 31.343C135.487 31.6116 135.779 31.916 135.67 32.3144C135.564 32.6983 135.19 32.9132 134.819 32.9792C134.212 33.0866 132.785 33.0866 132.842 32.1499C132.854 31.9619 132.95 31.7918 132.993 31.6105C133.069 31.2927 133.029 30.958 132.976 30.6402C132.891 30.1265 132.775 29.6162 132.635 29.1137C132.343 28.0695 131.931 27.0567 131.375 26.1234C131.09 25.6466 130.748 24.9975 130.243 24.7177C129.771 24.4559 129.132 24.4794 128.612 24.3618C128.41 24.316 128.201 24.2567 127.992 24.1839C128.059 24.2365 128.125 24.2891 128.194 24.3406C128.544 24.6058 128.898 24.8822 129.13 25.2628C129.374 25.6645 129.447 26.139 129.464 26.6024C129.484 27.1586 129.445 27.7181 129.445 28.2744C129.445 28.8496 129.459 29.4237 129.49 29.9978C129.52 30.5809 129.567 31.1628 129.629 31.7437C129.674 32.1578 129.744 32.6043 129.587 33.0038C129.311 33.7078 128.359 33.9965 127.665 34.0234C127.339 34.0357 127.066 33.8611 127.072 33.5119C127.075 33.2959 127.183 33.0945 127.272 32.9042C127.377 32.6759 127.472 32.4431 127.555 32.2059C128.213 30.3134 128.091 28.177 127.204 26.3785C126.669 25.2919 125.906 24.3249 125.454 23.1957C125.45 23.1868 125.447 23.1789 125.444 23.17C125.039 22.4481 124.681 21.7005 124.377 20.9306C124.067 20.1461 123.822 19.3392 123.55 18.5412C123.403 18.1092 123.246 17.6795 123.065 17.2598C122.998 17.1031 122.92 16.9498 122.84 16.7987C122.091 16.4093 121.473 15.6807 121.054 15.0226C120.68 14.434 120.374 13.7748 120.331 13.0698C120.324 12.9601 120.323 12.8459 120.33 12.7318C120.302 12.6769 120.274 12.6221 120.244 12.5673C120.004 12.1028 119.773 11.635 119.552 11.1616C119.331 10.6882 119.119 10.2104 118.917 9.72913C118.812 9.47957 118.474 8.95693 118.663 8.68162Z" fill="#9C9C9C"/>
<path d="M224.231 98.7733C224.281 99.1437 223.706 99.1616 223.476 99.1974C223.017 99.269 222.553 99.3116 222.088 99.3261C221.697 99.3384 221.306 99.3239 220.916 99.3037C220.831 99.419 220.731 99.5253 220.631 99.626C220.29 99.9719 219.973 100.332 219.649 100.694C219.434 100.933 219.206 101.162 218.946 101.35C218.968 101.494 218.991 101.637 219.019 101.777C219.118 102.275 219.219 102.774 219.32 103.272C219.446 103.898 219.906 105.017 219.003 105.261C218.249 105.465 217.495 104.918 217.012 104.401C216.675 104.04 216.387 103.634 216.074 103.252C215.749 102.856 215.411 102.471 215.061 102.096C214.747 101.759 214.373 101.433 214.056 101.074C213.533 101.266 213.019 101.478 212.519 101.726C211.585 102.188 210.721 102.759 209.898 103.394C208.399 104.55 206.977 105.901 205.194 106.617C203.373 107.349 201.414 107.159 199.547 106.712C198.443 106.448 197.359 106.105 196.254 105.842C195.27 105.608 194.154 105.34 193.151 105.611C192.062 105.906 191.418 106.936 191.101 107.952C190.812 108.877 190.779 109.877 190.994 110.821C191.22 111.812 191.736 112.72 192.457 113.436C192.844 113.821 193.292 114.15 193.775 114.405C194.222 114.64 194.699 114.759 195.165 114.944C195.485 115.071 195.834 115.272 195.924 115.631C196.012 115.983 195.805 116.328 195.508 116.513C195.158 116.729 194.72 116.706 194.332 116.636C193.854 116.55 193.387 116.402 192.946 116.2C191.138 115.379 189.801 113.755 189.2 111.882C188.631 110.109 188.621 108.053 189.247 106.293C189.57 105.382 190.115 104.592 190.871 103.993C190.779 103.983 190.684 103.955 190.591 103.903C190.144 103.658 189.962 103.091 189.954 102.612C189.945 102.029 190.169 101.485 190.462 100.99C190.831 100.369 191.273 99.7973 191.632 99.1683C192.007 98.5114 192.346 97.8343 192.762 97.202C193.093 96.6984 193.52 96.028 194.12 95.8165C194.625 95.6386 195.12 95.8792 195.278 96.3906C195.329 96.5563 195.34 96.7208 195.322 96.8819C195.42 96.6335 195.54 96.3917 195.565 96.1176C195.599 95.7359 195.621 95.3935 195.884 95.0868C196.046 94.8966 196.325 94.6895 196.577 94.8417C197.025 95.1115 196.76 95.9083 196.616 96.4186C197.939 96.3436 199.227 95.9911 200.555 95.9474C200.786 95.9396 201.019 95.943 201.253 95.9598C200.699 95.464 200.136 94.9839 199.535 94.534C198.694 93.905 197.806 93.0936 196.716 92.9952C196.351 92.9616 195.929 92.9303 195.744 92.5609C195.564 92.2051 195.699 91.7954 195.93 91.4989C196.309 91.0143 197.369 90.0619 197.955 90.7961C198.073 90.9438 198.115 91.134 198.205 91.2974C198.362 91.585 198.617 91.8055 198.869 92.007C199.277 92.3326 199.705 92.6348 200.146 92.9135C201.064 93.4954 202.049 93.9733 203.088 94.2945C203.62 94.459 204.309 94.7119 204.872 94.5832C205.397 94.4635 205.857 94.0192 206.322 93.7606C206.502 93.6599 206.698 93.5637 206.902 93.4786C206.817 93.4842 206.733 93.4898 206.647 93.4965C206.21 93.5335 205.761 93.5637 205.333 93.4361C204.882 93.3007 204.509 92.9963 204.187 92.6639C203.798 92.2644 203.453 91.8223 203.079 91.4082C202.694 90.9807 202.297 90.5633 201.89 90.157C201.476 89.7441 201.051 89.3423 200.615 88.9528C200.304 88.6742 199.952 88.391 199.801 87.9893C199.534 87.282 200.048 86.4314 200.545 85.948C200.779 85.7208 201.099 85.6682 201.329 85.9323C201.47 86.0946 201.526 86.3162 201.588 86.5165C201.663 86.7571 201.747 86.9932 201.846 87.2249C202.627 89.0703 204.151 90.5756 206.016 91.3209C207.142 91.7708 208.358 91.9812 209.451 92.5173C209.459 92.5218 209.468 92.5262 209.476 92.5296C210.261 92.796 211.029 93.1127 211.771 93.482C212.528 93.8591 213.251 94.2945 213.989 94.7063C214.388 94.929 214.792 95.1439 215.208 95.3353C215.364 95.4069 215.523 95.4685 215.685 95.5278C216.502 95.3174 217.451 95.4461 218.204 95.6565C218.877 95.8445 219.547 96.1299 220.052 96.6256C220.13 96.7029 220.208 96.7868 220.28 96.8763C220.337 96.8976 220.395 96.92 220.453 96.9412C220.942 97.1259 221.429 97.3206 221.91 97.5243C222.391 97.728 222.869 97.9417 223.343 98.1656C223.586 98.2797 224.188 98.4431 224.231 98.7733Z" fill="#9C9C9C"/>
<path d="M83.4938 169.385C83.8674 169.402 83.836 168.829 83.8517 168.597C83.8832 168.134 83.8854 167.671 83.8596 167.207C83.8383 166.817 83.7889 166.431 83.735 166.045C83.8428 165.949 83.9404 165.841 84.0324 165.733C84.3477 165.364 84.6809 165.018 85.013 164.665C85.2341 164.43 85.4416 164.183 85.6077 163.908C85.7536 163.918 85.8983 163.928 86.0408 163.944C86.5468 164 87.054 164.057 87.56 164.113C88.1962 164.183 89.353 164.544 89.5179 163.624C89.6559 162.857 89.0444 162.156 88.4857 161.721C88.0952 161.418 87.6643 161.167 87.2559 160.889C86.8318 160.6 86.4178 160.298 86.0127 159.983C85.6492 159.7 85.2913 159.358 84.9042 159.073C85.05 158.537 85.2172 158.008 85.4203 157.49C85.8007 156.522 86.2955 155.613 86.8587 154.74C87.8831 153.15 89.1084 151.619 89.6683 149.786C90.2405 147.912 89.8803 145.982 89.2711 144.167C88.9109 143.092 88.4733 142.046 88.1143 140.97C87.7956 140.013 87.4298 138.927 87.6139 137.906C87.8136 136.798 88.7864 136.068 89.7737 135.666C90.6725 135.299 91.6677 135.179 92.6293 135.31C93.6391 135.447 94.5905 135.88 95.3692 136.536C95.7866 136.888 96.1557 137.303 96.452 137.762C96.7257 138.185 96.8851 138.649 97.1106 139.095C97.2665 139.402 97.4954 139.731 97.8635 139.79C98.2236 139.846 98.5501 139.611 98.7072 139.299C98.8923 138.932 98.8318 138.5 98.7274 138.12C98.6006 137.653 98.411 137.202 98.172 136.781C97.1936 135.056 95.4556 133.869 93.5314 133.435C91.7114 133.024 89.657 133.193 87.9527 133.969C87.0719 134.37 86.3303 134.981 85.7973 135.783C85.7782 135.692 85.7423 135.602 85.6829 135.512C85.399 135.089 84.8167 134.957 84.3376 134.992C83.7541 135.034 83.2301 135.304 82.7623 135.638C82.1743 136.058 81.6414 136.547 81.0445 136.959C80.4217 137.389 79.7743 137.785 79.1786 138.253C78.7039 138.626 78.0722 139.108 77.9129 139.722C77.7783 140.24 78.0621 140.711 78.5872 140.823C78.7578 140.858 78.9227 140.855 79.0809 140.823C78.8408 140.942 78.6108 141.082 78.3393 141.13C77.96 141.197 77.6212 141.25 77.3384 141.537C77.1623 141.715 76.9794 142.009 77.1533 142.247C77.4607 142.668 78.2338 142.336 78.7309 142.149C78.7713 143.469 78.5311 144.781 78.6041 146.104C78.6164 146.334 78.6411 146.566 78.677 146.797C78.134 146.291 77.6055 145.773 77.1028 145.214C76.4016 144.434 75.5141 143.623 75.3199 142.547C75.2549 142.187 75.1864 141.77 74.8016 141.618C74.4302 141.472 74.033 141.641 73.757 141.896C73.3059 142.314 72.4476 143.451 73.2308 143.97C73.389 144.074 73.5819 144.099 73.7536 144.174C74.0543 144.305 74.2967 144.539 74.5199 144.772C74.8812 145.149 75.2201 145.549 75.5376 145.962C76.1985 146.822 76.7617 147.76 77.1735 148.765C77.3845 149.279 77.6975 149.942 77.6178 150.513C77.5438 151.046 77.1398 151.542 76.9222 152.026C76.838 152.214 76.7584 152.417 76.691 152.627C76.6888 152.542 76.6866 152.457 76.6866 152.372C76.6854 151.933 76.6765 151.485 76.5115 151.072C76.3365 150.635 76.001 150.292 75.6408 150C75.2077 149.648 74.7365 149.344 74.2899 149.009C73.8299 148.663 73.3789 148.306 72.9368 147.937C72.488 147.562 72.0504 147.174 71.6229 146.775C71.3177 146.491 71.0035 146.165 70.5895 146.05C69.8602 145.846 69.0557 146.431 68.6159 146.968C68.4095 147.221 68.3848 147.543 68.6686 147.749C68.8437 147.875 69.0692 147.911 69.2757 147.956C69.5225 148.01 69.766 148.073 70.0061 148.151C71.918 148.766 73.5539 150.148 74.4605 151.937C75.008 153.017 75.3244 154.207 75.955 155.246C75.9595 155.254 75.9651 155.262 75.9696 155.27C76.3039 156.027 76.6877 156.762 77.1208 157.468C77.5628 158.186 78.0621 158.868 78.5368 159.564C78.7937 159.941 79.0439 160.325 79.2717 160.721C79.3569 160.87 79.4321 161.023 79.5051 161.177C79.367 162.008 79.578 162.939 79.8529 163.669C80.0986 164.321 80.4431 164.961 80.9816 165.42C81.0658 165.492 81.1567 165.56 81.252 165.624C81.279 165.679 81.3059 165.735 81.3328 165.791C81.5595 166.262 81.7962 166.727 82.0419 167.188C82.2876 167.649 82.5423 168.106 82.8071 168.556C82.9451 168.786 83.1606 169.371 83.4938 169.385Z" fill="#9C9C9C"/>
<path d="M112.048 20.6206C112.345 20.8478 111.951 21.2663 111.815 21.4532C111.54 21.827 111.242 22.184 110.925 22.5231C110.657 22.8085 110.371 23.0726 110.08 23.3334C110.1 23.4755 110.106 23.621 110.107 23.762C110.11 24.2466 110.143 24.7256 110.17 25.209C110.188 25.5302 110.189 25.8525 110.137 26.1692C110.255 26.2554 110.373 26.3405 110.492 26.4199C110.916 26.702 111.34 26.9829 111.764 27.2649C112.297 27.6185 113.416 28.0852 112.949 28.8955C112.56 29.5714 111.641 29.7169 110.932 29.6912C110.437 29.6733 109.945 29.5893 109.453 29.5401C108.942 29.4897 108.429 29.455 107.917 29.4371C107.456 29.4203 106.961 29.4539 106.482 29.4237C106.248 29.9273 106.035 30.441 105.857 30.9681C105.523 31.9529 105.318 32.9669 105.186 33.9965C104.946 35.871 104.897 37.8295 104.146 39.5933C103.377 41.3951 101.857 42.6429 100.22 43.6435C99.2514 44.2355 98.2416 44.757 97.2744 45.3501C96.4127 45.8784 95.4332 46.4771 94.917 47.3758C94.356 48.3517 94.6309 49.5346 95.128 50.4769C95.5802 51.3342 96.2646 52.065 97.0859 52.5809C97.9487 53.1225 98.9563 53.4012 99.9751 53.3979C100.522 53.3967 101.071 53.3139 101.594 53.1528C102.077 53.0039 102.497 52.751 102.957 52.554C103.275 52.4175 103.663 52.3134 103.982 52.5048C104.294 52.6928 104.392 53.0823 104.313 53.4214C104.219 53.8209 103.893 54.113 103.568 54.3379C103.169 54.6143 102.734 54.8382 102.28 55.0072C100.417 55.7021 98.3224 55.4962 96.5687 54.5953C94.9092 53.7437 93.445 52.2966 92.6394 50.6101C92.2231 49.7383 92.0481 48.7948 92.1569 47.8391C92.084 47.8973 91.9987 47.9432 91.8955 47.9734C91.4051 48.1155 90.8744 47.8436 90.53 47.509C90.1103 47.1027 89.8826 46.5599 89.7401 46.0037C89.5606 45.3043 89.4674 44.588 89.2756 43.8897C89.0747 43.1611 88.8346 42.4426 88.6809 41.7029C88.5575 41.1131 88.3847 40.3386 88.6585 39.7656C88.8885 39.2833 89.4102 39.1042 89.8837 39.3549C90.0374 39.4366 90.162 39.5452 90.2618 39.6716C90.1552 39.4265 90.0688 39.1714 89.8915 38.9599C89.6447 38.6655 89.4181 38.4081 89.3855 38.0064C89.3653 37.7568 89.4147 37.4143 89.7019 37.3438C90.2091 37.2185 90.5872 37.9683 90.8464 38.4305C91.7283 37.4446 92.3892 36.2862 93.298 35.3193C93.4562 35.1514 93.6234 34.988 93.7995 34.8358C93.0568 34.875 92.3185 34.9332 91.5734 35.0384C90.5333 35.1861 89.3305 35.2387 88.4902 35.9382C88.2085 36.1732 87.8876 36.4474 87.4938 36.3176C87.1146 36.1922 86.9193 35.8073 86.8722 35.4357C86.7959 34.8258 86.8711 33.4045 87.8057 33.5097C87.9931 33.5309 88.1592 33.635 88.3387 33.6876C88.6528 33.7794 88.9895 33.757 89.3115 33.7212C89.831 33.6641 90.3482 33.5757 90.8576 33.4615C91.919 33.2254 92.9546 32.8684 93.9173 32.3625C94.4099 32.104 95.0764 31.7963 95.3838 31.3083C95.6699 30.8528 95.68 30.2149 95.8259 29.7035C95.882 29.5054 95.9527 29.2995 96.0368 29.0947C95.9807 29.1585 95.9246 29.2223 95.8696 29.2872C95.5869 29.6218 95.2907 29.9598 94.898 30.1702C94.4828 30.3929 94.0037 30.441 93.5392 30.4332C92.9816 30.4242 92.4239 30.3559 91.8663 30.3268C91.2907 30.2966 90.7151 30.281 90.1384 30.281C89.5527 30.281 88.9681 30.2966 88.3836 30.328C87.9662 30.3503 87.5162 30.3973 87.1247 30.2205C86.4346 29.9094 86.1945 28.9458 86.2035 28.252C86.208 27.9263 86.3976 27.6633 86.7465 27.6879C86.962 27.7025 87.1583 27.8211 87.3446 27.9185C87.5679 28.036 87.7956 28.1423 88.029 28.2374C89.8893 28.9917 92.0346 28.9816 93.8814 28.1927C94.9967 27.7159 96.0054 27.0075 97.1588 26.6158C97.1678 26.6124 97.1768 26.6102 97.1846 26.6068C97.9285 26.2409 98.696 25.923 99.4825 25.6612C100.285 25.3937 101.105 25.1922 101.918 24.9628C102.359 24.8386 102.797 24.7054 103.227 24.5476C103.387 24.4883 103.544 24.4189 103.7 24.3473C104.13 23.6221 104.892 23.0446 105.572 22.6619C106.181 22.3194 106.856 22.0497 107.566 22.043C107.675 22.0419 107.79 22.0475 107.904 22.0598C107.96 22.0352 108.017 22.0094 108.074 21.9837C108.551 21.7688 109.032 21.5629 109.518 21.3681C110.004 21.1723 110.493 20.9865 110.985 20.8108C111.241 20.7269 111.782 20.418 112.048 20.6206Z" fill="#9C9C9C"/>
<path d="M157.092 133.23C157.446 133.356 157.583 132.798 157.666 132.581C157.831 132.148 157.969 131.704 158.081 131.254C158.175 130.873 158.241 130.491 158.302 130.106C158.432 130.046 158.558 129.971 158.677 129.894C159.086 129.633 159.506 129.4 159.928 129.159C160.207 128.999 160.479 128.824 160.718 128.608C160.854 128.661 160.99 128.712 161.122 128.768C161.589 128.97 162.057 129.171 162.525 129.374C163.113 129.627 164.114 130.308 164.541 129.478C164.898 128.784 164.519 127.936 164.112 127.357C163.827 126.953 163.489 126.587 163.179 126.202C162.858 125.803 162.551 125.393 162.256 124.973C161.991 124.596 161.75 124.165 161.463 123.779C161.759 123.309 162.074 122.851 162.421 122.415C163.068 121.6 163.808 120.875 164.602 120.205C166.048 118.983 167.668 117.877 168.741 116.286C169.837 114.662 170.058 112.71 170.009 110.796C169.979 109.664 169.868 108.535 169.84 107.402C169.815 106.393 169.785 105.247 170.259 104.326C170.774 103.326 171.919 102.912 172.981 102.813C173.948 102.725 174.936 102.9 175.817 103.306C176.742 103.732 177.525 104.424 178.077 105.278C178.374 105.735 178.605 106.24 178.754 106.765C178.892 107.25 178.909 107.74 178.993 108.231C179.051 108.571 179.175 108.953 179.509 109.115C179.837 109.274 180.218 109.144 180.461 108.893C180.746 108.596 180.814 108.164 180.826 107.77C180.841 107.287 180.793 106.8 180.688 106.327C180.259 104.391 178.944 102.751 177.231 101.775C175.611 100.85 173.597 100.414 171.74 100.658C170.78 100.784 169.892 101.153 169.147 101.764C169.156 101.672 169.148 101.574 169.117 101.471C168.969 100.984 168.451 100.688 167.983 100.582C167.413 100.452 166.833 100.557 166.287 100.741C165.602 100.971 164.949 101.285 164.256 101.504C163.535 101.732 162.8 101.924 162.093 102.198C161.53 102.416 160.785 102.694 160.453 103.234C160.173 103.69 160.306 104.222 160.775 104.483C160.926 104.567 161.086 104.612 161.247 104.627C160.982 104.672 160.722 104.738 160.447 104.706C160.066 104.66 159.726 104.611 159.37 104.802C159.15 104.921 158.889 105.149 158.985 105.428C159.156 105.92 159.993 105.827 160.523 105.794C160.175 107.068 159.561 108.252 159.242 109.538C159.187 109.762 159.141 109.991 159.109 110.222C158.737 109.58 158.384 108.931 158.067 108.25C157.625 107.3 157.015 106.265 157.144 105.18C157.188 104.817 157.244 104.399 156.921 104.141C156.609 103.892 156.179 103.938 155.84 104.101C155.286 104.37 154.131 105.207 154.729 105.931C154.849 106.077 155.028 106.158 155.169 106.279C155.418 106.492 155.582 106.786 155.727 107.074C155.961 107.539 156.169 108.021 156.351 108.509C156.73 109.525 156.994 110.586 157.093 111.667C157.144 112.22 157.249 112.945 157.006 113.468C156.779 113.955 156.247 114.311 155.897 114.711C155.762 114.866 155.626 115.037 155.5 115.219C155.524 115.137 155.546 115.056 155.571 114.974C155.699 114.554 155.821 114.123 155.784 113.68C155.745 113.211 155.525 112.785 155.266 112.401C154.955 111.939 154.594 111.51 154.265 111.059C153.926 110.595 153.6 110.121 153.285 109.639C152.967 109.15 152.662 108.651 152.37 108.145C152.161 107.783 151.956 107.382 151.593 107.15C150.956 106.743 150.015 107.067 149.437 107.452C149.165 107.633 149.048 107.935 149.258 108.214C149.389 108.387 149.594 108.486 149.778 108.589C149.998 108.712 150.212 108.844 150.419 108.988C152.067 110.134 153.226 111.933 153.569 113.907C153.777 115.1 153.73 116.33 154.029 117.508C154.032 117.517 154.034 117.526 154.036 117.534C154.134 118.356 154.285 119.171 154.493 119.972C154.705 120.788 154.982 121.585 155.232 122.389C155.368 122.826 155.495 123.264 155.596 123.71C155.634 123.877 155.661 124.046 155.685 124.215C155.309 124.969 155.239 125.92 155.288 126.699C155.332 127.395 155.473 128.108 155.854 128.703C155.913 128.796 155.979 128.888 156.052 128.978C156.061 129.038 156.071 129.1 156.08 129.16C156.16 129.676 156.249 130.191 156.348 130.703C156.448 131.216 156.558 131.726 156.678 132.234C156.742 132.497 156.778 133.118 157.092 133.23Z" fill="#9C9C9C"/>
<path d="M45.5226 80.021C45.6718 80.3634 46.1734 80.0837 46.3899 79.9964C46.8208 79.8218 47.2393 79.6203 47.6455 79.3943C47.9877 79.204 48.3142 78.9914 48.6384 78.772C48.7708 78.8258 48.9111 78.866 49.0491 78.9019C49.5204 79.0227 49.977 79.1693 50.4415 79.3126C50.749 79.4077 51.0631 79.4861 51.384 79.514C51.439 79.6494 51.494 79.7837 51.5422 79.918C51.7139 80.397 51.8844 80.876 52.0561 81.3539C52.2715 81.9549 52.4544 83.1501 53.3554 82.8949C54.1071 82.6823 54.4707 81.8273 54.6177 81.1357C54.7198 80.6522 54.7568 80.1564 54.8286 79.6685C54.9027 79.1615 54.9935 78.6579 55.1001 78.1576C55.1955 77.7077 55.347 77.2366 55.4345 76.7654C55.9809 76.6613 56.5318 76.5785 57.0872 76.5338C58.1262 76.4498 59.1618 76.4957 60.1952 76.6177C62.0768 76.8393 63.9932 77.2668 65.8917 76.9646C67.8305 76.6569 69.4125 75.4874 70.7814 74.1455C71.5915 73.3521 72.3432 72.5004 73.1545 71.7081C73.877 71.0019 74.6961 70.1983 75.6958 69.9163C76.7808 69.6097 77.8658 70.1625 78.6613 70.8709C79.3861 71.5155 79.9303 72.3549 80.2344 73.2748C80.553 74.2407 80.58 75.2837 80.3309 76.2685C80.1973 76.7968 79.9842 77.3093 79.7014 77.776C79.44 78.2069 79.0922 78.5527 78.7892 78.9511C78.5794 79.2264 78.3842 79.5756 78.493 79.9303C78.6007 80.2773 78.9553 80.4675 79.3042 80.472C79.716 80.4776 80.0795 80.2336 80.3757 79.9729C80.7404 79.6539 81.0647 79.2868 81.3384 78.8884C82.4649 77.2545 82.7712 75.1774 82.3191 73.2614C81.8916 71.4495 80.838 69.6824 79.3929 68.4939C78.6456 67.8795 77.7704 67.4822 76.8134 67.3568C76.8874 67.3009 76.9525 67.2281 77.0063 67.1364C77.2633 66.6965 77.1264 66.1168 76.8852 65.7016C76.5912 65.198 76.1188 64.8455 75.6128 64.5724C74.9755 64.23 74.3012 63.9659 73.6683 63.6111C73.0086 63.2407 72.3668 62.8344 71.6846 62.5065C71.1404 62.2446 70.4291 61.8899 69.8052 62.0163C69.2801 62.1226 68.9806 62.5837 69.1096 63.103C69.1511 63.272 69.2274 63.4175 69.3262 63.5462C69.113 63.3839 68.8863 63.2384 68.7236 63.0157C68.497 62.7057 68.3006 62.4237 67.9191 62.2961C67.6813 62.2166 67.3357 62.182 67.1977 62.4427C66.9531 62.9027 67.5915 63.4499 67.9786 63.8137C66.8061 64.4281 65.5203 64.7884 64.359 65.433C64.157 65.545 63.9584 65.6681 63.7666 65.8012C63.9842 65.0917 64.2199 64.3911 64.5026 63.6961C64.8976 62.7258 65.2409 61.5743 66.1239 60.9296C66.4201 60.7136 66.7646 60.4697 66.7332 60.0578C66.7029 59.6605 66.3764 59.3785 66.0252 59.2431C65.4496 59.0226 64.0493 58.7507 63.9259 59.6807C63.9012 59.8676 63.9629 60.0533 63.9708 60.2391C63.9842 60.5659 63.881 60.886 63.7688 61.1882C63.587 61.6761 63.3761 62.1562 63.1427 62.6218C62.6569 63.5909 62.0589 64.5075 61.334 65.3167C60.9627 65.7307 60.5026 66.3015 59.954 66.4806C59.4412 66.6473 58.8185 66.5029 58.2855 66.5197C58.0791 66.5264 57.8614 66.5444 57.6426 66.5757C57.7178 66.5365 57.7941 66.4973 57.8704 66.4604C58.2653 66.2679 58.6648 66.0631 58.9655 65.7341C59.2819 65.386 59.4446 64.9339 59.55 64.4829C59.6768 63.9412 59.7441 63.385 59.8507 62.8378C59.9596 62.2737 60.0841 61.7119 60.2244 61.1546C60.3657 60.5883 60.5228 60.0254 60.6945 59.4681C60.8179 59.0696 60.9728 58.6455 60.8953 58.2236C60.7596 57.4805 59.8799 57.0149 59.2033 56.856C58.8858 56.781 58.584 56.9007 58.5223 57.2454C58.4841 57.4581 58.5514 57.6763 58.6019 57.88C58.6614 58.124 58.7108 58.3713 58.7467 58.6197C59.0305 60.6028 58.5021 62.6755 57.2869 64.2736C56.5543 65.2383 55.6196 66.043 54.9599 67.0648C54.9554 67.0726 54.9498 67.0804 54.9453 67.0883C54.409 67.7194 53.9142 68.3853 53.4698 69.0837C53.0166 69.7954 52.6205 70.5408 52.202 71.2716C51.9742 71.6678 51.7386 72.0594 51.4816 72.4377C51.3851 72.5787 51.2797 72.7141 51.172 72.8473C50.363 73.0879 49.6157 73.6844 49.0794 74.2518C48.5992 74.7588 48.1728 75.3475 47.9955 76.0313C47.9675 76.1376 47.945 76.2495 47.9305 76.3637C47.8923 76.4118 47.8542 76.4599 47.816 76.5091C47.4918 76.9187 47.1753 77.3351 46.8679 77.757C46.5605 78.1789 46.2609 78.6075 45.9703 79.0429C45.8211 79.2667 45.3902 79.7155 45.5226 80.021Z" fill="#9C9C9C"/>
<path d="M13.2333 65.2618C13.6025 65.2003 13.6406 65.7721 13.6844 66.0004C13.7719 66.4559 13.8302 66.917 13.8617 67.3792C13.8886 67.7698 13.8863 68.1581 13.8796 68.5487C13.9974 68.6304 14.1074 68.7255 14.2117 68.8218C14.5696 69.1497 14.9422 69.4519 15.3158 69.763C15.5638 69.9689 15.8005 70.1883 15.998 70.4412C16.1416 70.4132 16.2841 70.3863 16.4232 70.3539C16.9191 70.2375 17.4151 70.1189 17.911 70.0014C18.5337 69.8536 19.6378 69.3556 19.9149 70.2487C20.1449 70.9929 19.6243 71.764 19.1228 72.262C18.7716 72.6112 18.3744 72.9122 18.003 73.2379C17.6182 73.5759 17.2434 73.9262 16.8799 74.2876C16.5534 74.6133 16.2403 74.9961 15.8914 75.3262C16.1023 75.8399 16.3323 76.3457 16.5971 76.8348C17.0931 77.7491 17.6956 78.5907 18.3609 79.3898C19.5716 80.8436 20.9752 82.2134 21.755 83.9659C22.5517 85.7554 22.4305 87.7151 22.0479 89.5918C21.8212 90.702 21.5149 91.7943 21.2905 92.9045C21.0908 93.8938 20.8608 95.0163 21.1682 96.0067C21.5015 97.0811 22.5561 97.6877 23.5862 97.9675C24.523 98.2226 25.525 98.2204 26.4641 97.9742C27.4504 97.7145 28.3413 97.1695 29.0335 96.4242C29.4049 96.0246 29.7202 95.5669 29.9581 95.0767C30.178 94.6235 30.2801 94.1434 30.4495 93.6733C30.5662 93.3488 30.7536 92.994 31.1115 92.8922C31.4616 92.7926 31.815 92.9862 32.0091 93.276C32.238 93.6174 32.2302 94.0538 32.1741 94.4444C32.1045 94.9234 31.9721 95.3935 31.787 95.8411C31.0262 97.6731 29.4464 99.0609 27.5906 99.7268C25.8347 100.356 23.7747 100.437 21.9884 99.8756C21.065 99.5846 20.2538 99.0687 19.6277 98.3379C19.621 98.4308 19.5963 98.5248 19.548 98.6199C19.318 99.0743 18.7559 99.2757 18.2757 99.3004C17.6922 99.3295 17.1391 99.1258 16.633 98.8505C15.998 98.5046 15.4089 98.0827 14.766 97.7481C14.095 97.3978 13.405 97.0822 12.7565 96.6905C12.2403 96.3783 11.5537 95.9765 11.3214 95.3856C11.1251 94.8887 11.3495 94.3862 11.8566 94.2116C12.0216 94.1546 12.1854 94.1389 12.3469 94.1512C12.0945 94.0606 11.8488 93.9509 11.5727 93.9352C11.189 93.914 10.8457 93.9039 10.5293 93.6543C10.3329 93.4988 10.1153 93.229 10.2589 92.9716C10.5124 92.5162 11.3203 92.7523 11.8375 92.8776C11.7152 91.5615 11.3181 90.2902 11.2283 88.9674C11.2126 88.7368 11.2081 88.5041 11.2159 88.2713C10.7391 88.8398 10.2779 89.4184 9.84709 90.0328C9.24569 90.8923 8.46477 91.8055 8.40418 92.8955C8.38398 93.2615 8.36603 93.6823 8.0025 93.8804C7.65243 94.0718 7.23616 93.952 6.9321 93.7315C6.4328 93.3712 5.44206 92.346 6.15679 91.7372C6.3004 91.6141 6.49002 91.5649 6.65047 91.4698C6.93322 91.303 7.14528 91.0422 7.33827 90.7837C7.65019 90.3663 7.93742 89.9287 8.20222 89.4788C8.75313 88.5443 9.19744 87.5449 9.48356 86.4974C9.62942 85.9614 9.85943 85.2653 9.71133 84.7091C9.5722 84.1898 9.11217 83.7466 8.83616 83.2922C8.72956 83.1154 8.62634 82.924 8.53321 82.7237C8.54219 82.8076 8.55004 82.8927 8.56014 82.9766C8.61287 83.412 8.65888 83.8585 8.54555 84.2883C8.4255 84.7426 8.13377 85.1254 7.81176 85.4589C7.42466 85.8595 6.99381 86.2199 6.59213 86.606C6.17698 87.0044 5.77306 87.414 5.38035 87.8348C4.98091 88.2612 4.59382 88.6999 4.21794 89.1476C3.94978 89.4676 3.67826 89.828 3.28106 89.9936C2.58205 90.2846 1.71136 89.8022 1.20982 89.3232C0.974201 89.0983 0.910247 88.7805 1.16607 88.5421C1.32427 88.3944 1.54418 88.3317 1.74278 88.2634C1.98065 88.1806 2.21515 88.0877 2.44404 87.9814C4.26619 87.1387 5.72144 85.5674 6.40251 83.6817C6.81429 82.5435 6.98259 81.3237 7.48188 80.2157C7.48525 80.2079 7.48974 80.1989 7.4931 80.1911C7.73209 79.3987 8.0227 78.6221 8.36715 77.87C8.71834 77.1034 9.13012 76.367 9.5161 75.6172C9.72591 75.2109 9.92675 74.8002 10.104 74.3794C10.1702 74.2216 10.2263 74.0605 10.2802 73.8971C10.0412 73.0902 10.1366 72.14 10.3217 71.3824C10.4866 70.7042 10.7492 70.0271 11.2283 69.5067C11.3023 69.4261 11.3843 69.3455 11.4718 69.2717C11.492 69.2135 11.5122 69.1553 11.5312 69.0971C11.6984 68.6024 11.8768 68.1111 12.0642 67.6232C12.2516 67.1353 12.449 66.6518 12.6566 66.1728C12.761 65.9221 12.9046 65.3166 13.2333 65.2618Z" fill="#9C9C9C"/>
<path d="M237.636 65.2618C238.005 65.2003 238.043 65.7721 238.087 66.0004C238.175 66.4559 238.233 66.917 238.264 67.3792C238.29 67.7698 238.289 68.1581 238.282 68.5487C238.4 68.6304 238.51 68.7255 238.615 68.8218C238.972 69.1497 239.345 69.4519 239.719 69.763C239.967 69.9689 240.203 70.1883 240.401 70.4412C240.544 70.4132 240.687 70.3863 240.826 70.3539C241.322 70.2375 241.818 70.1189 242.314 70.0014C242.937 69.8536 244.041 69.3556 244.318 70.2487C244.548 70.9929 244.027 71.764 243.526 72.262C243.174 72.6112 242.777 72.9122 242.406 73.2379C242.021 73.5759 241.646 73.9262 241.283 74.2876C240.956 74.6133 240.643 74.9961 240.294 75.3262C240.505 75.8399 240.735 76.3457 241 76.8348C241.496 77.7491 242.098 78.5907 242.764 79.3898C243.974 80.8436 245.378 82.2134 246.158 83.9659C246.954 85.7554 246.833 87.7151 246.451 89.5918C246.224 90.702 245.918 91.7943 245.693 92.9045C245.494 93.8938 245.264 95.0163 245.571 96.0067C245.904 97.0811 246.959 97.6877 247.989 97.9675C248.926 98.2226 249.928 98.2204 250.867 97.9742C251.852 97.7145 252.744 97.1695 253.436 96.4242C253.808 96.0246 254.123 95.5669 254.361 95.0767C254.581 94.6235 254.683 94.1434 254.852 93.6733C254.969 93.3488 255.156 92.994 255.514 92.8922C255.864 92.7926 256.218 92.9862 256.412 93.276C256.641 93.6174 256.633 94.0538 256.577 94.4444C256.507 94.9234 256.375 95.3935 256.19 95.8411C255.429 97.6731 253.849 99.0609 251.993 99.7268C250.236 100.356 248.177 100.437 246.391 99.8756C245.468 99.5846 244.657 99.0687 244.031 98.3379C244.024 98.4308 243.999 98.5248 243.95 98.6199C243.72 99.0743 243.158 99.2757 242.677 99.3004C242.094 99.3295 241.54 99.1258 241.035 98.8505C240.4 98.5046 239.811 98.0827 239.168 97.7481C238.497 97.3978 237.807 97.0822 237.158 96.6905C236.642 96.3783 235.957 95.9765 235.723 95.3856C235.527 94.8887 235.751 94.3862 236.258 94.2116C236.423 94.1546 236.587 94.1389 236.749 94.1512C236.496 94.0606 236.25 93.9509 235.974 93.9352C235.591 93.914 235.247 93.9039 234.931 93.6543C234.735 93.4988 234.517 93.229 234.661 92.9716C234.915 92.5162 235.722 92.7523 236.239 92.8776C236.117 91.5615 235.72 90.2902 235.63 88.9674C235.614 88.7368 235.61 88.5041 235.618 88.2713C235.141 88.8398 234.68 89.4184 234.249 90.0328C233.647 90.8923 232.866 91.8055 232.806 92.8955C232.786 93.2615 232.768 93.6823 232.405 93.8804C232.055 94.0718 231.639 93.952 231.335 93.7315C230.836 93.3712 229.845 92.346 230.56 91.7372C230.703 91.6141 230.893 91.5649 231.053 91.4698C231.336 91.303 231.548 91.0422 231.741 90.7837C232.053 90.3663 232.34 89.9287 232.605 89.4788C233.156 88.5443 233.6 87.5449 233.886 86.4974C234.032 85.9614 234.262 85.2653 234.114 84.7091C233.975 84.1898 233.515 83.7466 233.239 83.2922C233.132 83.1154 233.029 82.924 232.936 82.7237C232.945 82.8076 232.953 82.8927 232.963 82.9766C233.016 83.412 233.062 83.8585 232.948 84.2883C232.828 84.7426 232.537 85.1254 232.215 85.4589C231.827 85.8595 231.397 86.2199 230.995 86.606C230.58 87.0044 230.176 87.414 229.783 87.8348C229.384 88.2612 228.997 88.6999 228.621 89.1476C228.353 89.4676 228.081 89.828 227.684 89.9936C226.985 90.2846 226.114 89.8022 225.613 89.3232C225.377 89.0983 225.313 88.7805 225.569 88.5421C225.727 88.3944 225.947 88.3317 226.146 88.2634C226.383 88.1806 226.618 88.0877 226.847 87.9814C228.669 87.1387 230.124 85.5674 230.805 83.6817C231.217 82.5435 231.385 81.3237 231.885 80.2157C231.888 80.2079 231.893 80.1989 231.896 80.1911C232.135 79.3987 232.426 78.6221 232.77 77.87C233.121 77.1034 233.533 76.367 233.919 75.6172C234.129 75.2109 234.33 74.8002 234.507 74.3794C234.573 74.2216 234.629 74.0605 234.683 73.8971C234.444 73.0902 234.539 72.14 234.723 71.3824C234.888 70.7042 235.151 70.0271 235.63 69.5067C235.704 69.4261 235.786 69.3455 235.873 69.2717C235.894 69.2135 235.913 69.1553 235.933 69.0971C236.1 68.6024 236.279 68.1111 236.466 67.6232C236.653 67.1353 236.851 66.6518 237.058 66.1728C237.164 65.9221 237.307 65.3166 237.636 65.2618Z" fill="#9C9C9C"/>
<path d="M278.278 25.0356C278.255 24.6629 277.688 24.7535 277.455 24.7625C276.991 24.7804 276.527 24.8263 276.069 24.9001C275.681 24.9628 275.302 25.0512 274.922 25.1452C274.815 25.049 274.697 24.9639 274.581 24.8834C274.179 24.6092 273.8 24.3148 273.413 24.0216C273.156 23.828 272.889 23.6467 272.596 23.5113C272.59 23.3658 272.585 23.2203 272.586 23.0782C272.588 22.5701 272.593 22.062 272.596 21.5539C272.6 20.9149 272.838 19.7297 271.904 19.6626C271.125 19.6066 270.489 20.2859 270.114 20.8858C269.853 21.3055 269.647 21.7587 269.413 22.193C269.169 22.644 268.911 23.086 268.64 23.5203C268.395 23.9108 268.091 24.3014 267.849 24.7144C267.299 24.626 266.754 24.5152 266.216 24.3674C265.211 24.0921 264.254 23.696 263.324 23.2282C261.632 22.3776 259.977 21.3234 258.089 20.9585C256.162 20.587 254.275 21.1454 252.529 21.94C251.495 22.4101 250.497 22.954 249.463 23.4218C248.542 23.8381 247.496 24.3137 246.461 24.2387C245.335 24.157 244.506 23.2673 244.001 22.3306C243.541 21.4778 243.318 20.5031 243.347 19.535C243.379 18.5188 243.712 17.5295 244.283 16.689C244.59 16.238 244.965 15.8295 245.392 15.4871C245.784 15.1715 246.231 14.9644 246.652 14.6947C246.942 14.5078 247.246 14.246 247.265 13.8755C247.283 13.5129 247.015 13.213 246.689 13.0899C246.304 12.9444 245.878 13.0496 245.51 13.1929C245.058 13.3686 244.629 13.6025 244.234 13.8834C242.615 15.035 241.615 16.8827 241.383 18.8367C241.163 20.6855 241.546 22.7055 242.498 24.3148C242.989 25.1464 243.676 25.819 244.531 26.2633C244.442 26.2912 244.356 26.336 244.273 26.4043C243.88 26.7299 243.811 27.322 243.895 27.7931C243.998 28.3672 244.321 28.8585 244.704 29.2883C245.185 29.8277 245.728 30.3056 246.201 30.8551C246.694 31.4281 247.156 32.0279 247.686 32.5707C248.107 33.0027 248.654 33.5779 249.284 33.6719C249.813 33.7514 250.253 33.4201 250.31 32.8874C250.33 32.7151 250.308 32.5517 250.259 32.3972C250.404 32.6222 250.567 32.8359 250.644 33.1012C250.75 33.4694 250.838 33.8018 251.153 34.0525C251.349 34.208 251.661 34.3591 251.881 34.161C252.268 33.8118 251.857 33.0799 251.618 32.6065C252.93 32.4286 254.262 32.5293 255.574 32.3189C255.802 32.282 256.03 32.2339 256.256 32.1745C255.808 32.7666 255.347 33.3452 254.842 33.9014C254.138 34.6792 253.421 35.6439 252.37 35.9483C252.018 36.0501 251.61 36.162 251.499 36.5593C251.391 36.9432 251.601 37.3192 251.885 37.5665C252.349 37.9705 253.573 38.7036 254.007 37.8709C254.095 37.7042 254.101 37.5083 254.157 37.3304C254.257 37.0182 254.463 36.7529 254.673 36.5078C255.011 36.1105 255.374 35.7323 255.753 35.3742C256.542 34.6288 257.418 33.9719 258.378 33.4593C258.868 33.1963 259.496 32.8169 260.074 32.836C260.613 32.8539 261.149 33.2019 261.655 33.3675C261.851 33.4313 262.062 33.4895 262.279 33.5343C262.195 33.5444 262.111 33.5556 262.025 33.5645C261.589 33.6115 261.142 33.6675 260.747 33.8745C260.33 34.0939 260.023 34.4632 259.769 34.8504C259.464 35.3171 259.209 35.8162 258.922 36.2941C258.626 36.7865 258.316 37.2722 257.994 37.7478C257.666 38.2324 257.326 38.7069 256.973 39.1725C256.721 39.5049 256.43 39.8507 256.358 40.2737C256.231 41.018 256.898 41.7555 257.479 42.136C257.753 42.315 258.077 42.305 258.252 42.0028C258.36 41.8159 258.372 41.5887 258.395 41.3794C258.421 41.1299 258.461 40.8814 258.512 40.6352C258.925 38.6745 260.134 36.9074 261.822 35.8207C262.842 35.1649 263.996 34.7273 264.966 33.992C264.973 33.9864 264.981 33.9808 264.988 33.9752C265.708 33.5645 266.401 33.1079 267.059 32.6032C267.73 32.0895 268.356 31.5232 269.001 30.9793C269.35 30.6838 269.707 30.3962 270.078 30.1299C270.217 30.0303 270.362 29.9396 270.509 29.8501C271.352 29.9005 272.258 29.5938 272.957 29.2446C273.582 28.9324 274.185 28.5239 274.586 27.942C274.649 27.8513 274.708 27.7539 274.761 27.6521C274.814 27.6197 274.867 27.5872 274.918 27.5547C275.364 27.2806 275.804 26.9974 276.238 26.7053C276.672 26.4132 277.1 26.1122 277.522 25.8033C277.739 25.6433 278.298 25.3691 278.278 25.0356Z" fill="#9C9C9C"/>
<path d="M53.8749 25.0356C53.8525 24.6629 53.2848 24.7535 53.0525 24.7625C52.588 24.7804 52.1246 24.8263 51.6657 24.9001C51.2786 24.9628 50.8994 25.0512 50.519 25.1452C50.4124 25.049 50.2946 24.9639 50.1779 24.8834C49.7762 24.6092 49.397 24.3148 49.0099 24.0216C48.7529 23.828 48.4859 23.6467 48.1931 23.5113C48.1874 23.3658 48.1818 23.2203 48.183 23.0782C48.1852 22.5701 48.1897 22.062 48.1931 21.5539C48.1975 20.9149 48.4343 19.7297 47.5008 19.6626C46.7221 19.6066 46.0859 20.2859 45.7112 20.8858C45.4497 21.3055 45.2444 21.7587 45.0099 22.193C44.7664 22.644 44.5084 23.086 44.2368 23.5203C43.9922 23.9108 43.6882 24.3014 43.4458 24.7144C42.896 24.626 42.3507 24.5152 41.8133 24.3674C40.808 24.0921 39.8509 23.696 38.9207 23.2282C37.2287 22.3776 35.5738 21.3234 33.6877 20.9585C31.76 20.587 29.8728 21.1454 28.1258 21.94C27.0925 22.4101 26.0939 22.954 25.0605 23.4218C24.1393 23.8381 23.0936 24.3137 22.058 24.2387C20.9326 24.157 20.1034 23.2673 19.5985 22.3306C19.1385 21.4778 18.9141 20.5031 18.9444 19.535C18.9758 18.5188 19.309 17.5295 19.8801 16.689C20.1876 16.238 20.5623 15.8295 20.9887 15.4871C21.3825 15.1715 21.828 14.9644 22.2487 14.6947C22.5393 14.5078 22.8434 14.246 22.8625 13.8755C22.8804 13.5129 22.6123 13.213 22.2857 13.0899C21.9009 12.9444 21.4757 13.0496 21.1076 13.1929C20.6555 13.3686 20.2257 13.6025 19.8308 13.8834C18.2117 15.035 17.212 16.8827 16.9797 18.8367C16.7598 20.6855 17.1436 22.7055 18.095 24.3148C18.5865 25.1464 19.2731 25.819 20.1281 26.2633C20.0395 26.2912 19.9531 26.336 19.87 26.4043C19.4773 26.7299 19.4078 27.322 19.4919 27.7931C19.5952 28.3672 19.9183 28.8585 20.3009 29.2883C20.7822 29.8277 21.3253 30.3056 21.7988 30.8551C22.2925 31.4281 22.7547 32.0279 23.2843 32.5707C23.7051 33.0027 24.2526 33.5779 24.8821 33.6719C25.4117 33.7514 25.8515 33.4201 25.9087 32.8874C25.9267 32.7151 25.9065 32.5517 25.8571 32.3972C26.0019 32.6222 26.1657 32.8359 26.242 33.1012C26.3486 33.4694 26.4361 33.8018 26.7514 34.0525C26.9466 34.208 27.2596 34.3591 27.4796 34.161C27.8666 33.8118 27.4549 33.0799 27.2159 32.6065C28.5286 32.4286 29.8605 32.5293 31.1721 32.3189C31.401 32.282 31.6288 32.2339 31.8554 32.1745C31.4077 32.7666 30.9466 33.3452 30.4417 33.9014C29.7382 34.6792 29.0201 35.6439 27.9688 35.9483C27.6164 36.0501 27.2091 36.162 27.0969 36.5593C26.9892 36.9432 27.199 37.3192 27.4829 37.5665C27.9474 37.9705 29.1715 38.7036 29.6058 37.8709C29.6933 37.7042 29.6989 37.5083 29.755 37.3304C29.8549 37.0182 30.0613 36.7529 30.2711 36.5078C30.6089 36.1105 30.9724 35.7323 31.3516 35.3742C32.1404 34.6288 33.0167 33.9719 33.976 33.4593C34.4663 33.1963 35.0947 32.8169 35.6725 32.836C36.2111 32.8539 36.7474 33.2019 37.2534 33.3675C37.4498 33.4313 37.6607 33.4895 37.8773 33.5343C37.7931 33.5444 37.709 33.5556 37.6237 33.5645C37.1872 33.6115 36.7407 33.6675 36.3457 33.8745C35.9283 34.0939 35.6209 34.4632 35.3673 34.8504C35.0621 35.3171 34.8074 35.8162 34.5202 36.2941C34.224 36.7865 33.9143 37.2722 33.5923 37.7478C33.2647 38.2324 32.9247 38.7069 32.5713 39.1725C32.3188 39.5049 32.0282 39.8507 31.9564 40.2737C31.8296 41.018 32.4961 41.7555 33.0773 42.136C33.3511 42.315 33.6753 42.305 33.8503 42.0028C33.9581 41.8159 33.9704 41.5887 33.9928 41.3794C34.0198 41.1299 34.059 40.8814 34.1107 40.6352C34.5236 38.6745 35.732 36.9074 37.4206 35.8207C38.4405 35.1649 39.5939 34.7273 40.5634 33.992C40.5712 33.9864 40.5779 33.9808 40.5847 33.9752C41.305 33.5645 41.9984 33.1079 42.6559 32.6032C43.3269 32.0895 43.953 31.5232 44.5981 30.9793C44.9482 30.6838 45.3039 30.3962 45.6753 30.1299C45.8144 30.0303 45.9591 29.9396 46.1061 29.8501C46.9487 29.9005 47.8553 29.5938 48.5543 29.2446C49.1793 28.9324 49.7818 28.5239 50.1835 27.942C50.2463 27.8513 50.3058 27.7539 50.3585 27.6521C50.4113 27.6197 50.4629 27.5872 50.5156 27.5547C50.9611 27.2806 51.4009 26.9974 51.8351 26.7053C52.2693 26.4132 52.6968 26.1122 53.1187 25.8033C53.3364 25.6433 53.8951 25.3691 53.8749 25.0356Z" fill="#9C9C9C"/>
<path d="M90.0251 91.1172C90.3999 91.1139 90.3483 91.6846 90.355 91.9174C90.3696 92.3807 90.3561 92.8452 90.3146 93.3074C90.2798 93.6969 90.217 94.0807 90.1486 94.4646C90.2518 94.5631 90.346 94.675 90.4347 94.7858C90.7376 95.1663 91.0574 95.5222 91.3772 95.8881C91.5892 96.1298 91.7889 96.3839 91.9449 96.6648C92.0908 96.6603 92.2366 96.6547 92.3791 96.6447C92.8874 96.6066 93.3957 96.5674 93.9039 96.5283C94.5424 96.479 95.7115 96.1601 95.8439 97.0845C95.955 97.8556 95.3199 98.5349 94.7455 98.9501C94.3449 99.2399 93.9051 99.475 93.4866 99.7391C93.0535 100.013 92.6282 100.301 92.2131 100.601C91.8394 100.871 91.4703 101.201 91.0731 101.471C91.1999 102.012 91.3491 102.547 91.5331 103.072C91.8787 104.052 92.3421 104.978 92.8739 105.871C93.8422 107.496 95.0125 109.068 95.5084 110.92C96.0145 112.813 95.587 114.729 94.9149 116.523C94.5177 117.584 94.0431 118.614 93.647 119.676C93.2947 120.622 92.8919 121.695 93.04 122.721C93.2004 123.834 94.1474 124.597 95.1202 125.035C96.0055 125.433 96.9962 125.588 97.9612 125.49C98.9755 125.387 99.9415 124.988 100.743 124.36C101.172 124.023 101.555 123.62 101.867 123.174C102.155 122.761 102.331 122.302 102.572 121.864C102.738 121.562 102.979 121.241 103.348 121.196C103.71 121.153 104.028 121.399 104.175 121.716C104.348 122.088 104.271 122.519 104.155 122.895C104.011 123.357 103.807 123.802 103.553 124.213C102.514 125.904 100.736 127.028 98.7982 127.396C96.9648 127.744 94.9171 127.503 93.242 126.669C92.3758 126.238 91.6554 125.601 91.1516 124.781C91.1303 124.872 91.0911 124.96 91.0282 125.047C90.7298 125.46 90.143 125.572 89.665 125.521C89.0838 125.458 88.5688 125.17 88.1132 124.82C87.5399 124.379 87.0249 123.871 86.4426 123.439C85.8344 122.988 85.2027 122.569 84.6238 122.08C84.1626 121.691 83.5489 121.187 83.4109 120.567C83.2953 120.046 83.5949 119.585 84.1234 119.491C84.295 119.46 84.46 119.469 84.617 119.508C84.3814 119.379 84.157 119.231 83.8866 119.174C83.5107 119.093 83.173 119.03 82.9004 118.733C82.7309 118.55 82.5581 118.248 82.741 118.017C83.063 117.607 83.8238 117.966 84.3141 118.17C84.4005 116.851 84.2064 115.533 84.3253 114.213C84.3455 113.983 84.378 113.752 84.4218 113.523C83.8608 114.01 83.3144 114.509 82.7926 115.05C82.0645 115.804 81.1489 116.585 80.9178 117.653C80.8403 118.011 80.7573 118.424 80.3668 118.563C79.991 118.697 79.5994 118.514 79.3335 118.25C78.897 117.815 78.0791 116.649 78.8802 116.158C79.0417 116.059 79.2359 116.04 79.4098 115.971C79.715 115.85 79.9652 115.626 80.1974 115.4C80.5711 115.037 80.9234 114.649 81.2555 114.246C81.9455 113.409 82.5413 112.492 82.9879 111.501C83.2168 110.994 83.5522 110.343 83.4928 109.77C83.4378 109.235 83.0518 108.726 82.851 108.234C82.7736 108.043 82.7006 107.838 82.6412 107.626C82.6367 107.711 82.6311 107.795 82.6277 107.88C82.6109 108.318 82.5873 108.766 82.4078 109.172C82.2182 109.602 81.8703 109.934 81.5001 110.214C81.0546 110.55 80.5733 110.839 80.1155 111.158C79.6431 111.487 79.1798 111.828 78.7253 112.182C78.2642 112.541 77.8131 112.914 77.3711 113.296C77.0558 113.57 76.7304 113.884 76.313 113.986C75.577 114.164 74.7927 113.551 74.373 113C74.1756 112.74 74.1621 112.417 74.4527 112.221C74.6322 112.1 74.8589 112.073 75.0665 112.035C75.3144 111.99 75.5601 111.934 75.8025 111.866C77.7346 111.318 79.4176 109.993 80.387 108.237C80.9716 107.177 81.3295 105.997 81.9971 104.981C82.0016 104.973 82.0072 104.965 82.0128 104.959C82.373 104.213 82.7825 103.492 83.2403 102.802C83.7071 102.099 84.2299 101.436 84.7292 100.756C84.9996 100.388 85.2633 100.014 85.5034 99.626C85.5932 99.4805 85.674 99.3295 85.7525 99.1773C85.6437 98.3424 85.8872 97.4191 86.1879 96.6995C86.4571 96.056 86.8229 95.4281 87.3772 94.9883C87.4636 94.9201 87.5567 94.854 87.6543 94.7936C87.6835 94.7388 87.7116 94.685 87.7407 94.6302C87.9842 94.168 88.2367 93.7103 88.4981 93.2581C88.7595 92.806 89.031 92.3595 89.3104 91.9174C89.4552 91.6958 89.6908 91.1206 90.0251 91.1172Z" fill="#9C9C9C"/>
<path d="M205.965 50.506C206.096 50.1568 205.541 50.0091 205.324 49.9229C204.892 49.7506 204.45 49.6051 204.002 49.4865C203.622 49.3857 203.24 49.313 202.854 49.2458C202.797 49.1149 202.724 48.9884 202.648 48.8676C202.394 48.4546 202.167 48.0316 201.933 47.6074C201.777 47.3254 201.606 47.0523 201.395 46.8106C201.45 46.6752 201.504 46.5409 201.562 46.4111C201.772 45.9478 201.983 45.4855 202.193 45.0222C202.457 44.4403 203.158 43.4543 202.332 43.0134C201.643 42.6463 200.786 43.0089 200.199 43.404C199.788 43.6804 199.417 44.0117 199.025 44.3138C198.619 44.6261 198.203 44.926 197.778 45.2125C197.395 45.4699 196.959 45.7038 196.567 45.9824C196.102 45.678 195.648 45.3557 195.217 45.0032C194.412 44.344 193.698 43.5931 193.04 42.7896C191.84 41.3257 190.76 39.6918 189.184 38.5928C187.575 37.4714 185.623 37.2163 183.703 37.233C182.568 37.2431 181.435 37.3349 180.298 37.3427C179.287 37.3494 178.138 37.3606 177.222 36.8704C176.228 36.3388 175.833 35.1906 175.754 34.1286C175.681 33.1627 175.874 32.1813 176.297 31.3094C176.74 30.394 177.448 29.6251 178.313 29.0891C178.778 28.8015 179.287 28.5799 179.817 28.4411C180.305 28.3124 180.796 28.3046 181.291 28.2285C181.633 28.1759 182.018 28.0595 182.185 27.7293C182.35 27.4048 182.227 27.0232 181.979 26.7769C181.687 26.4871 181.255 26.4121 180.86 26.3931C180.375 26.3696 179.887 26.4099 179.412 26.5061C177.464 26.9012 175.796 28.1837 174.787 29.8736C173.832 31.4728 173.358 33.4739 173.571 35.3305C173.681 36.2907 174.035 37.1827 174.635 37.9359C174.543 37.9247 174.446 37.9314 174.342 37.9605C173.851 38.0992 173.546 38.6107 173.43 39.0763C173.29 39.6425 173.385 40.2234 173.559 40.7706C173.779 41.4589 174.081 42.1158 174.288 42.8086C174.505 43.5327 174.683 44.2679 174.946 44.9786C175.155 45.5438 175.419 46.2913 175.957 46.6327C176.408 46.9192 176.945 46.7961 177.215 46.3327C177.302 46.1828 177.349 46.025 177.367 45.8638C177.408 46.1279 177.469 46.3898 177.431 46.6629C177.378 47.0434 177.323 47.3814 177.509 47.7384C177.624 47.96 177.849 48.2252 178.129 48.1334C178.626 47.9712 178.548 47.1352 178.523 46.6058C179.795 46.9762 180.97 47.6086 182.255 47.9488C182.478 48.0081 182.707 48.0573 182.937 48.0943C182.286 48.4535 181.629 48.7948 180.941 49.0981C179.98 49.5223 178.932 50.1132 177.847 49.9643C177.484 49.9151 177.065 49.8513 176.802 50.1691C176.547 50.4758 176.585 50.9055 176.743 51.2457C177.003 51.8031 177.822 52.9692 178.559 52.385C178.707 52.2675 178.792 52.0918 178.916 51.953C179.133 51.708 179.431 51.5502 179.722 51.4103C180.194 51.1842 180.678 50.9861 181.171 50.8126C182.195 50.4523 183.265 50.2072 184.35 50.1277C184.905 50.0863 185.634 49.9946 186.154 50.2464C186.638 50.4814 186.986 51.0174 187.381 51.3733C187.534 51.511 187.703 51.6498 187.883 51.7785C187.801 51.7538 187.72 51.7292 187.638 51.7035C187.22 51.5692 186.79 51.4394 186.344 51.4685C185.874 51.4987 185.442 51.7113 185.053 51.9631C184.584 52.2653 184.148 52.6178 183.691 52.9379C183.22 53.268 182.739 53.5859 182.25 53.8903C181.754 54.2003 181.249 54.4957 180.737 54.7777C180.371 54.9792 179.964 55.1773 179.726 55.5343C179.306 56.1632 179.615 57.1078 179.99 57.6897C180.168 57.9639 180.467 58.087 180.751 57.8811C180.926 57.7547 181.029 57.551 181.136 57.3697C181.263 57.1526 181.4 56.941 181.547 56.7374C182.724 55.1146 184.548 53.9899 186.534 53.6821C187.734 53.4963 188.965 53.5646 190.151 53.2871C190.16 53.2848 190.169 53.2826 190.178 53.2803C191.003 53.1975 191.823 53.061 192.63 52.8674C193.451 52.6704 194.255 52.4074 195.067 52.1724C195.507 52.0448 195.949 51.9262 196.397 51.8333C196.565 51.7986 196.734 51.774 196.905 51.7527C197.654 52.1411 198.607 52.2284 199.388 52.1925C200.086 52.1601 200.803 52.0325 201.406 51.6632C201.501 51.6061 201.594 51.5412 201.685 51.4696C201.746 51.4617 201.807 51.4528 201.869 51.445C202.387 51.3756 202.904 51.295 203.42 51.2043C203.937 51.1137 204.449 51.013 204.961 50.9011C205.226 50.8429 205.848 50.8182 205.965 50.506Z" fill="#9C9C9C"/>
<path d="M169.846 84.2133C169.715 84.5636 169.199 84.3107 168.979 84.2334C168.54 84.0812 168.111 83.9022 167.693 83.6974C167.341 83.525 167.004 83.3292 166.669 83.1277C166.539 83.1893 166.401 83.2363 166.266 83.2788C165.802 83.4243 165.353 83.5944 164.897 83.7623C164.594 83.8731 164.286 83.9682 163.967 84.0119C163.919 84.1495 163.872 84.2872 163.83 84.4237C163.683 84.9105 163.538 85.3973 163.393 85.8853C163.21 86.4975 163.09 87.6994 162.176 87.4924C161.414 87.3189 161.006 86.484 160.823 85.8014C160.695 85.3235 160.632 84.8311 160.536 84.3465C160.435 83.8451 160.318 83.346 160.186 82.8513C160.067 82.407 159.891 81.9448 159.779 81.4781C159.227 81.4031 158.672 81.3494 158.116 81.3338C157.073 81.3047 156.042 81.4043 155.016 81.58C153.147 81.9 151.257 82.426 149.345 82.2235C147.393 82.0164 145.752 80.932 144.314 79.6629C143.463 78.9119 142.668 78.1017 141.816 77.3519C141.058 76.6849 140.197 75.925 139.184 75.6956C138.084 75.446 137.031 76.0537 136.272 76.8035C135.582 77.485 135.083 78.3524 134.828 79.2857C134.561 80.2672 134.589 81.3103 134.889 82.2806C135.051 82.8009 135.289 83.3023 135.597 83.7533C135.881 84.1697 136.247 84.4976 136.57 84.8792C136.793 85.1422 137.007 85.4824 136.916 85.8416C136.828 86.1942 136.483 86.4023 136.134 86.4247C135.724 86.4516 135.348 86.2266 135.037 85.9827C134.656 85.6827 134.313 85.3336 134.018 84.9497C132.808 83.3762 132.392 81.3181 132.744 79.382C133.076 77.55 134.034 75.7302 135.415 74.469C136.129 73.8165 136.983 73.3745 137.931 73.1988C137.854 73.1462 137.785 73.0779 137.725 72.9884C137.446 72.562 137.551 71.9755 137.771 71.5491C138.038 71.031 138.492 70.6538 138.983 70.3561C139.601 69.9801 140.261 69.6824 140.874 69.2952C141.513 68.8912 142.132 68.4525 142.797 68.0876C143.326 67.7978 144.018 67.4061 144.648 67.5001C145.178 67.5784 145.502 68.0227 145.4 68.5499C145.367 68.72 145.299 68.8711 145.207 69.0031C145.411 68.8296 145.63 68.673 145.781 68.4424C145.991 68.1212 146.172 67.8291 146.548 67.6814C146.781 67.5896 147.124 67.537 147.276 67.79C147.544 68.2376 146.935 68.8173 146.568 69.2001C147.772 69.7529 149.075 70.045 150.267 70.6281C150.475 70.7299 150.68 70.8419 150.878 70.965C150.623 70.2689 150.351 69.5806 150.032 68.9013C149.586 67.9522 149.183 66.8208 148.268 66.2232C147.96 66.0229 147.604 65.7968 147.614 65.3838C147.623 64.9854 147.935 64.6866 148.278 64.5333C148.841 64.2826 150.226 63.9379 150.397 64.8612C150.432 65.047 150.381 65.235 150.382 65.4208C150.385 65.7475 150.505 66.062 150.634 66.3586C150.841 66.8365 151.077 67.3043 151.334 67.7575C151.871 68.7009 152.516 69.5839 153.282 70.355C153.674 70.749 154.164 71.2951 154.722 71.4462C155.242 71.5861 155.857 71.4093 156.389 71.3981C156.595 71.3936 156.814 71.4003 157.034 71.4204C156.957 71.3857 156.879 71.3511 156.801 71.3175C156.397 71.1451 155.986 70.9616 155.67 70.6482C155.335 70.317 155.149 69.8738 155.02 69.4295C154.865 68.8946 154.768 68.3428 154.633 67.8023C154.494 67.2449 154.34 66.691 154.172 66.1415C154.001 65.583 153.814 65.0291 153.613 64.4818C153.469 64.0901 153.292 63.6749 153.347 63.2496C153.444 62.4998 154.298 61.9895 154.965 61.7959C155.279 61.7041 155.587 61.8082 155.665 62.1495C155.714 62.3599 155.659 62.5815 155.619 62.7874C155.572 63.0347 155.536 63.2832 155.514 63.5339C155.334 65.5293 155.972 67.5717 157.268 69.1038C158.05 70.0282 159.026 70.7837 159.737 71.7696C159.743 71.7774 159.747 71.7853 159.753 71.792C160.321 72.3952 160.85 73.0342 161.331 73.708C161.822 74.3951 162.255 75.1181 162.713 75.8265C162.961 76.2103 163.216 76.5897 163.494 76.9535C163.598 77.09 163.71 77.2187 163.825 77.3463C164.645 77.5444 165.422 78.1017 165.988 78.6389C166.494 79.1201 166.95 79.6853 167.164 80.3601C167.197 80.4653 167.225 80.575 167.247 80.688C167.287 80.7339 167.327 80.7809 167.369 80.8268C167.715 81.2196 168.052 81.618 168.382 82.0243C168.712 82.4305 169.033 82.8424 169.346 83.2609C169.51 83.4747 169.963 83.9011 169.846 84.2133Z" fill="#9C9C9C"/>
<path d="M211.97 153.427C211.915 153.058 211.357 153.198 211.126 153.227C210.665 153.285 210.207 153.371 209.756 153.484C209.376 153.58 209.006 153.702 208.635 153.829C208.521 153.742 208.396 153.668 208.273 153.598C207.849 153.359 207.446 153.1 207.034 152.841C206.762 152.67 206.479 152.513 206.176 152.403C206.158 152.259 206.14 152.115 206.128 151.973C206.086 151.466 206.046 150.96 206.004 150.453C205.953 149.816 206.085 148.615 205.149 148.629C204.368 148.64 203.795 149.372 203.474 150.002C203.25 150.443 203.086 150.912 202.89 151.365C202.687 151.835 202.468 152.298 202.235 152.755C202.027 153.164 201.757 153.581 201.551 154.014C200.996 153.974 200.442 153.911 199.894 153.81C198.868 153.623 197.88 153.311 196.913 152.927C195.152 152.228 193.412 151.32 191.501 151.122C189.549 150.919 187.718 151.64 186.047 152.584C185.059 153.141 184.112 153.77 183.122 154.326C182.241 154.821 181.241 155.386 180.202 155.4C179.075 155.416 178.17 154.603 177.586 153.713C177.053 152.903 176.744 151.951 176.691 150.985C176.633 149.97 176.878 148.955 177.375 148.069C177.641 147.593 177.98 147.152 178.375 146.775C178.739 146.426 179.165 146.182 179.561 145.875C179.834 145.664 180.114 145.376 180.1 145.006C180.087 144.642 179.793 144.368 179.457 144.273C179.061 144.161 178.647 144.303 178.293 144.478C177.857 144.691 177.45 144.962 177.081 145.277C175.57 146.565 174.734 148.492 174.673 150.458C174.616 152.319 175.175 154.298 176.263 155.819C176.825 156.606 177.568 157.215 178.459 157.584C178.372 157.62 178.291 157.672 178.214 157.747C177.852 158.107 177.833 158.702 177.958 159.164C178.111 159.727 178.477 160.189 178.895 160.583C179.422 161.079 180.005 161.508 180.523 162.013C181.065 162.542 181.578 163.099 182.153 163.593C182.61 163.985 183.205 164.512 183.841 164.551C184.375 164.583 184.785 164.216 184.795 163.68C184.798 163.506 184.763 163.345 184.701 163.196C184.864 163.408 185.046 163.607 185.145 163.864C185.283 164.223 185.4 164.545 185.735 164.768C185.944 164.905 186.268 165.028 186.47 164.812C186.826 164.431 186.351 163.737 186.072 163.286C187.364 162.995 188.699 162.979 189.989 162.656C190.213 162.6 190.436 162.532 190.656 162.452C190.261 163.081 189.853 163.697 189.4 164.295C188.766 165.131 188.136 166.154 187.115 166.549C186.773 166.681 186.377 166.828 186.299 167.234C186.225 167.626 186.468 167.983 186.772 168.203C187.27 168.566 188.553 169.189 188.914 168.322C188.987 168.147 188.974 167.953 189.016 167.771C189.088 167.452 189.271 167.169 189.458 166.906C189.76 166.481 190.089 166.073 190.435 165.683C191.157 164.872 191.972 164.142 192.882 163.547C193.348 163.242 193.94 162.809 194.518 162.779C195.057 162.75 195.621 163.051 196.14 163.172C196.34 163.219 196.556 163.258 196.776 163.284C196.693 163.302 196.61 163.319 196.526 163.336C196.095 163.421 195.655 163.515 195.28 163.756C194.884 164.01 194.609 164.405 194.39 164.814C194.128 165.305 193.917 165.824 193.673 166.324C193.421 166.841 193.155 167.351 192.877 167.854C192.593 168.365 192.296 168.868 191.985 169.362C191.763 169.715 191.502 170.085 191.468 170.512C191.406 171.265 192.135 171.941 192.747 172.269C193.035 172.424 193.357 172.386 193.505 172.069C193.597 171.874 193.588 171.646 193.593 171.435C193.598 171.184 193.615 170.933 193.644 170.683C193.884 168.695 194.933 166.829 196.521 165.599C197.479 164.857 198.591 164.32 199.492 163.504C199.499 163.499 199.506 163.492 199.512 163.485C200.193 163.014 200.844 162.498 201.456 161.938C202.078 161.369 202.654 160.75 203.249 160.152C203.571 159.828 203.901 159.511 204.247 159.212C204.377 159.1 204.514 158.997 204.652 158.897C205.496 158.873 206.372 158.489 207.038 158.081C207.633 157.715 208.198 157.257 208.547 156.642C208.601 156.545 208.651 156.443 208.696 156.338C208.745 156.301 208.795 156.264 208.844 156.228C209.264 155.915 209.678 155.595 210.084 155.266C210.491 154.937 210.891 154.601 211.285 154.257C211.486 154.08 212.019 153.758 211.97 153.427Z" fill="#9C9C9C"/>
<path d="M128.526 154.256C128.895 154.194 128.745 153.64 128.712 153.411C128.646 152.952 128.552 152.497 128.429 152.05C128.327 151.672 128.198 151.304 128.065 150.938C128.15 150.823 128.223 150.697 128.29 150.573C128.521 150.146 128.775 149.739 129.027 149.325C129.195 149.049 129.346 148.765 129.45 148.462C129.595 148.442 129.739 148.42 129.881 148.407C130.388 148.357 130.896 148.307 131.403 148.257C132.04 148.194 133.246 148.306 133.216 147.373C133.191 146.594 132.447 146.034 131.81 145.726C131.365 145.51 130.891 145.354 130.433 145.167C129.959 144.972 129.491 144.763 129.029 144.539C128.615 144.338 128.193 144.077 127.755 143.879C127.786 143.325 127.839 142.771 127.93 142.223C128.099 141.196 128.395 140.206 128.764 139.235C129.435 137.466 130.313 135.715 130.479 133.806C130.649 131.855 129.894 130.041 128.92 128.391C128.343 127.415 127.697 126.482 127.122 125.505C126.611 124.635 126.027 123.648 125.995 122.612C125.959 121.487 126.759 120.572 127.641 119.973C128.443 119.428 129.391 119.104 130.359 119.032C131.376 118.957 132.397 119.184 133.296 119.663C133.778 119.92 134.225 120.251 134.609 120.637C134.965 120.994 135.218 121.415 135.532 121.804C135.748 122.074 136.041 122.348 136.412 122.328C136.776 122.308 137.046 122.01 137.136 121.673C137.242 121.276 137.091 120.865 136.911 120.515C136.689 120.085 136.41 119.682 136.089 119.321C134.772 117.836 132.825 117.036 130.853 117.01C128.987 116.985 127.013 117.577 125.508 118.688C124.729 119.264 124.131 120.014 123.777 120.91C123.74 120.825 123.687 120.744 123.609 120.669C123.243 120.314 122.647 120.307 122.184 120.44C121.623 120.602 121.167 120.975 120.778 121.399C120.29 121.933 119.872 122.521 119.374 123.047C118.853 123.597 118.303 124.118 117.818 124.7C117.433 125.164 116.915 125.766 116.887 126.4C116.864 126.934 117.24 127.336 117.777 127.337C117.951 127.337 118.111 127.299 118.261 127.235C118.051 127.402 117.855 127.587 117.599 127.691C117.242 127.835 116.921 127.957 116.703 128.295C116.569 128.505 116.451 128.831 116.671 129.028C117.06 129.376 117.747 128.89 118.193 128.604C118.507 129.888 118.547 131.219 118.893 132.498C118.954 132.721 119.026 132.943 119.109 133.161C118.471 132.778 117.848 132.381 117.24 131.939C116.391 131.322 115.353 130.711 114.941 129.701C114.802 129.362 114.648 128.969 114.239 128.899C113.845 128.832 113.492 129.081 113.275 129.387C112.921 129.891 112.318 131.181 113.194 131.525C113.37 131.594 113.565 131.58 113.748 131.617C114.069 131.683 114.356 131.861 114.623 132.042C115.054 132.336 115.469 132.656 115.866 132.995C116.692 133.7 117.438 134.501 118.051 135.398C118.364 135.857 118.808 136.441 118.85 137.015C118.888 137.551 118.597 138.12 118.485 138.639C118.441 138.841 118.406 139.055 118.384 139.275C118.365 139.192 118.345 139.11 118.327 139.026C118.235 138.598 118.133 138.161 117.885 137.791C117.623 137.4 117.223 137.133 116.81 136.922C116.313 136.668 115.789 136.468 115.283 136.233C114.76 135.99 114.245 135.734 113.735 135.465C113.218 135.191 112.709 134.903 112.208 134.601C111.85 134.386 111.476 134.134 111.046 134.106C110.29 134.057 109.624 134.796 109.307 135.413C109.158 135.703 109.201 136.023 109.521 136.166C109.719 136.253 109.948 136.242 110.157 136.242C110.41 136.243 110.661 136.255 110.912 136.281C112.911 136.486 114.799 137.5 116.059 139.061C116.82 140.003 117.378 141.102 118.211 141.988C118.218 141.994 118.224 142.001 118.23 142.008C118.715 142.679 119.243 143.319 119.815 143.919C120.397 144.53 121.026 145.093 121.637 145.676C121.968 145.992 122.292 146.315 122.596 146.656C122.71 146.783 122.816 146.917 122.919 147.054C122.957 147.896 123.358 148.762 123.779 149.419C124.156 150.006 124.625 150.561 125.247 150.898C125.344 150.951 125.447 150.999 125.555 151.041C125.593 151.09 125.631 151.139 125.668 151.187C125.988 151.6 126.317 152.007 126.653 152.407C126.99 152.806 127.334 153.2 127.687 153.586C127.864 153.784 128.196 154.309 128.526 154.256Z" fill="#9C9C9C"/>
<path d="M8.91355 136.047C9.03809 135.695 9.5587 135.939 9.77974 136.011C10.2218 136.156 10.6538 136.328 11.0745 136.525C11.4302 136.692 11.7702 136.881 12.109 137.077C12.2381 137.013 12.375 136.964 12.5096 136.919C12.9707 136.766 13.4173 136.588 13.8706 136.412C14.1713 136.296 14.4787 136.196 14.7963 136.146C14.8411 136.007 14.8872 135.869 14.9253 135.732C15.0633 135.243 15.2002 134.752 15.3371 134.263C15.5099 133.648 15.6086 132.444 16.5253 132.635C17.2894 132.795 17.7124 133.622 17.9076 134.302C18.0434 134.777 18.1152 135.269 18.2207 135.752C18.3306 136.252 18.4563 136.748 18.5965 137.24C18.7233 137.682 18.9073 138.141 19.0274 138.607C19.5805 138.673 20.1359 138.716 20.6925 138.722C21.7348 138.733 22.7648 138.616 23.787 138.422C25.6484 138.071 27.5311 137.511 29.4453 137.68C31.401 137.852 33.0604 138.909 34.5202 140.152C35.3841 140.888 36.1931 141.684 37.0582 142.42C37.8279 143.073 38.7019 143.817 39.7184 144.03C40.8225 144.261 41.8649 143.634 42.6099 142.872C43.2876 142.178 43.7723 141.303 44.0113 140.365C44.2615 139.379 44.2155 138.337 43.898 137.371C43.7274 136.853 43.4794 136.357 43.1642 135.911C42.8736 135.499 42.5022 135.178 42.1723 134.802C41.9445 134.542 41.7246 134.206 41.8088 133.845C41.8918 133.491 42.2318 133.277 42.5807 133.247C42.9902 133.212 43.3706 133.432 43.6848 133.67C44.0707 133.962 44.4197 134.306 44.7215 134.685C45.9591 136.237 46.4101 138.288 46.0937 140.231C45.7942 142.068 44.8674 143.905 43.5086 145.189C42.8062 145.854 41.9602 146.311 41.0155 146.503C41.0929 146.555 41.1636 146.622 41.2242 146.71C41.5114 147.131 41.4161 147.72 41.204 148.15C40.9459 148.673 40.4994 149.057 40.0135 149.364C39.402 149.75 38.7468 150.06 38.142 150.457C37.5092 150.872 36.8988 151.322 36.2402 151.697C35.7162 151.996 35.0307 152.4 34.4001 152.317C33.8694 152.248 33.5373 151.809 33.6304 151.281C33.6607 151.11 33.7258 150.959 33.8155 150.824C33.6147 151.001 33.3981 151.161 33.2512 151.395C33.047 151.721 32.8708 152.015 32.4983 152.17C32.2672 152.266 31.9249 152.324 31.7679 152.074C31.4918 151.632 32.091 151.041 32.4512 150.652C31.2383 150.12 29.93 149.851 28.7272 149.288C28.5174 149.189 28.3109 149.081 28.1112 148.961C28.3783 149.653 28.6621 150.335 28.9931 151.01C29.4554 151.951 29.8773 153.076 30.804 153.657C31.1148 153.852 31.4761 154.071 31.4739 154.484C31.4716 154.882 31.1653 155.187 30.8242 155.346C30.2655 155.606 28.8876 155.975 28.6991 155.055C28.661 154.87 28.7092 154.681 28.7048 154.494C28.6958 154.167 28.5701 153.855 28.4366 153.561C28.2212 153.086 27.9766 152.623 27.7118 152.174C27.1586 151.241 26.4978 150.369 25.7191 149.611C25.3196 149.224 24.8215 148.686 24.2605 148.546C23.7376 148.415 23.1261 148.602 22.5943 148.622C22.3878 148.63 22.169 148.626 21.9491 148.611C22.0276 148.644 22.1051 148.678 22.1847 148.71C22.592 148.875 23.006 149.052 23.3269 149.359C23.6669 149.684 23.861 150.124 23.9979 150.567C24.1617 151.1 24.2683 151.649 24.4131 152.186C24.5612 152.741 24.725 153.293 24.9034 153.839C25.084 154.394 25.2804 154.945 25.4913 155.489C25.6417 155.877 25.8257 156.29 25.7785 156.717C25.6944 157.468 24.8495 157.992 24.1864 158.198C23.8745 158.295 23.5648 158.196 23.4807 157.857C23.4279 157.648 23.4795 157.425 23.5154 157.219C23.5581 156.972 23.5895 156.722 23.6086 156.471C23.7533 154.473 23.0801 152.443 21.7572 150.933C20.9584 150.022 19.9699 149.284 19.2406 148.311C19.235 148.303 19.2293 148.296 19.2237 148.288C18.6448 147.695 18.1051 147.066 17.6125 146.4C17.1099 145.722 16.6644 145.006 16.1943 144.305C15.9396 143.926 15.677 143.551 15.3943 143.193C15.2877 143.059 15.1733 142.931 15.0577 142.806C14.2341 142.622 13.4476 142.078 12.872 141.551C12.3581 141.079 11.8914 140.522 11.667 139.851C11.6322 139.747 11.6019 139.637 11.5783 139.524C11.5368 139.479 11.4953 139.433 11.4538 139.388C11.1015 139.002 10.757 138.609 10.4204 138.208C10.0838 137.809 9.75506 137.401 9.43528 136.988C9.26361 136.779 8.80247 136.361 8.91355 136.047Z" fill="#9C9C9C"/>
<path d="M233.316 136.047C233.441 135.695 233.962 135.939 234.183 136.011C234.625 136.156 235.057 136.328 235.477 136.525C235.832 136.692 236.173 136.881 236.512 137.077C236.641 137.013 236.778 136.964 236.912 136.919C237.374 136.766 237.82 136.588 238.273 136.412C238.574 136.296 238.882 136.196 239.199 136.146C239.245 136.007 239.29 135.869 239.328 135.732C239.466 135.243 239.603 134.752 239.74 134.263C239.913 133.648 240.011 132.444 240.928 132.635C241.692 132.795 242.115 133.622 242.31 134.302C242.446 134.777 242.518 135.269 242.623 135.752C242.733 136.252 242.858 136.748 242.999 137.24C243.126 137.682 243.31 138.141 243.43 138.607C243.983 138.673 244.539 138.716 245.095 138.722C246.138 138.733 247.168 138.616 248.191 138.422C250.052 138.071 251.934 137.511 253.849 137.68C255.805 137.852 257.464 138.909 258.924 140.152C259.788 140.888 260.597 141.684 261.462 142.42C262.232 143.073 263.106 143.817 264.122 144.03C265.226 144.261 266.27 143.634 267.014 142.872C267.692 142.178 268.176 141.303 268.415 140.365C268.665 139.379 268.619 138.337 268.302 137.371C268.131 136.853 267.883 136.357 267.568 135.911C267.278 135.499 266.906 135.178 266.576 134.802C266.348 134.542 266.129 134.206 266.213 133.845C266.296 133.491 266.637 133.277 266.985 133.247C267.395 133.212 267.775 133.432 268.089 133.67C268.475 133.962 268.824 134.306 269.125 134.685C270.363 136.237 270.814 138.288 270.498 140.231C270.198 142.068 269.271 143.905 267.913 145.189C267.21 145.854 266.364 146.311 265.419 146.503C265.497 146.555 265.568 146.622 265.628 146.71C265.915 147.131 265.82 147.72 265.608 148.15C265.35 148.673 264.903 149.057 264.417 149.364C263.806 149.75 263.152 150.06 262.545 150.457C261.912 150.872 261.302 151.322 260.643 151.697C260.119 151.996 259.433 152.4 258.803 152.317C258.272 152.248 257.94 151.809 258.033 151.281C258.064 151.11 258.129 150.959 258.218 150.824C258.018 151.001 257.801 151.161 257.654 151.395C257.45 151.721 257.274 152.015 256.901 152.17C256.67 152.266 256.328 152.324 256.172 152.074C255.896 151.632 256.495 151.041 256.855 150.652C255.642 150.12 254.334 149.851 253.131 149.288C252.921 149.189 252.715 149.081 252.515 148.961C252.782 149.653 253.066 150.335 253.397 151.01C253.859 151.951 254.281 153.076 255.208 153.657C255.519 153.852 255.88 154.071 255.878 154.484C255.876 154.882 255.569 155.187 255.228 155.346C254.669 155.606 253.292 155.975 253.103 155.055C253.065 154.87 253.113 154.681 253.109 154.494C253.1 154.167 252.974 153.855 252.841 153.561C252.625 153.086 252.382 152.623 252.116 152.174C251.563 151.241 250.902 150.369 250.123 149.611C249.724 149.224 249.225 148.686 248.664 148.546C248.142 148.415 247.53 148.602 246.998 148.622C246.792 148.63 246.573 148.626 246.353 148.611C246.432 148.644 246.509 148.678 246.589 148.71C246.996 148.875 247.409 149.052 247.731 149.359C248.071 149.684 248.265 150.124 248.402 150.567C248.566 151.1 248.673 151.649 248.817 152.186C248.966 152.741 249.129 153.293 249.307 153.839C249.488 154.394 249.684 154.945 249.895 155.489C250.046 155.877 250.23 156.29 250.183 156.717C250.098 157.468 249.253 157.992 248.59 158.198C248.278 158.295 247.969 158.196 247.885 157.857C247.832 157.648 247.883 157.425 247.919 157.219C247.962 156.972 247.993 156.722 248.013 156.471C248.157 154.473 247.484 152.443 246.161 150.933C245.362 150.022 244.374 149.284 243.645 148.311C243.639 148.303 243.633 148.296 243.628 148.288C243.049 147.695 242.509 147.066 242.016 146.4C241.514 145.722 241.068 145.006 240.598 144.305C240.344 143.926 240.081 143.551 239.798 143.193C239.692 143.059 239.577 142.931 239.461 142.806C238.637 142.622 237.85 142.078 237.275 141.551C236.761 141.079 236.294 140.522 236.07 139.851C236.035 139.747 236.005 139.637 235.981 139.524C235.94 139.479 235.898 139.433 235.857 139.388C235.504 139.002 235.16 138.609 234.823 138.208C234.487 137.809 234.158 137.401 233.838 136.988C233.666 136.779 233.205 136.361 233.316 136.047Z" fill="#9C9C9C"/>
</g>
<defs>
<clipPath id="clip0_2_5332">
<rect width="299" height="150" fill="white" transform="translate(1)"/>
</clipPath>
</defs>
</svg>
